  0
SECTION
  2
HEADER
  9
$ACADVER
  1
AC1009
  9
$EXTMIN
 10
0.0
 20
0.0
 30
0.0
  9
$EXTMAX
 10
1000.0
 20
1000.0
 30
0.0
  9
$FILLMODE
 70
 0
  9
$SPLFRAME
 70
 1
  0
ENDSEC
  0
SECTION
  2
TABLES
  0
TABLE
  2
LAYER
 70
1
  0
LAYER
  2
0
 70
     0
 62
     7
  6
CONTINUOUS
  0
ENDTAB
  0
ENDSEC
  0
SECTION
  2
ENTITIES
  0
LINE
  8
0
 62
     0
 10
317.897
 20
130.433
 30
0.0
 11
318.131
 21
130.423
 31
0.0
  0
LINE
  8
0
 62
     0
 10
318.131
 20
130.423
 30
0.0
 11
318.365
 21
130.397
 31
0.0
  0
LINE
  8
0
 62
     0
 10
318.365
 20
130.397
 30
0.0
 11
318.597
 21
130.35
 31
0.0
  0
LINE
  8
0
 62
     0
 10
318.597
 20
130.35
 30
0.0
 11
318.823
 21
130.286
 31
0.0
  0
LINE
  8
0
 62
     0
 10
318.823
 20
130.286
 30
0.0
 11
319.045
 21
130.204
 31
0.0
  0
LINE
  8
0
 62
     0
 10
319.045
 20
130.204
 30
0.0
 11
319.257
 21
130.106
 31
0.0
  0
LINE
  8
0
 62
     0
 10
319.257
 20
130.106
 30
0.0
 11
319.464
 21
129.99
 31
0.0
  0
LINE
  8
0
 62
     0
 10
319.464
 20
129.99
 30
0.0
 11
319.659
 21
129.861
 31
0.0
  0
LINE
  8
0
 62
     0
 10
319.659
 20
129.861
 30
0.0
 11
319.844
 21
129.715
 31
0.0
  0
LINE
  8
0
 62
     0
 10
319.844
 20
129.715
 30
0.0
 11
320.018
 21
129.555
 31
0.0
  0
LINE
  8
0
 62
     0
 10
320.018
 20
129.555
 30
0.0
 11
320.178
 21
129.381
 31
0.0
  0
LINE
  8
0
 62
     0
 10
320.178
 20
129.381
 30
0.0
 11
320.324
 21
129.197
 31
0.0
  0
LINE
  8
0
 62
     0
 10
320.324
 20
129.197
 30
0.0
 11
320.453
 21
129.001
 31
0.0
  0
LINE
  8
0
 62
     0
 10
320.453
 20
129.001
 30
0.0
 11
320.569
 21
128.794
 31
0.0
  0
LINE
  8
0
 62
     0
 10
320.569
 20
128.794
 30
0.0
 11
320.668
 21
128.58
 31
0.0
  0
LINE
  8
0
 62
     0
 10
320.668
 20
128.58
 30
0.0
 11
320.749
 21
128.36
 31
0.0
  0
LINE
  8
0
 62
     0
 10
320.749
 20
128.36
 30
0.0
 11
320.813
 21
128.133
 31
0.0
  0
LINE
  8
0
 62
     0
 10
320.813
 20
128.133
 30
0.0
 11
320.86
 21
127.903
 31
0.0
  0
LINE
  8
0
 62
     0
 10
320.86
 20
127.903
 30
0.0
 11
320.886
 21
127.669
 31
0.0
  0
LINE
  8
0
 62
     0
 10
320.886
 20
127.669
 30
0.0
 11
320.897
 21
127.433
 31
0.0
  0
LINE
  8
0
 62
     0
 10
320.897
 20
127.433
 30
0.0
 11
320.897
 21
3.1309
 31
0.0
  0
LINE
  8
0
 62
     0
 10
320.897
 20
3.1309
 30
0.0
 11
320.886
 21
2.89664
 31
0.0
  0
LINE
  8
0
 62
     0
 10
320.886
 20
2.89664
 30
0.0
 11
320.86
 21
2.66237
 31
0.0
  0
LINE
  8
0
 62
     0
 10
320.86
 20
2.66237
 30
0.0
 11
320.813
 21
2.43086
 31
0.0
  0
LINE
  8
0
 62
     0
 10
320.813
 20
2.43086
 30
0.0
 11
320.749
 21
2.20486
 31
0.0
  0
LINE
  8
0
 62
     0
 10
320.749
 20
2.20486
 30
0.0
 11
320.668
 21
1.983
 31
0.0
  0
LINE
  8
0
 62
     0
 10
320.668
 20
1.983
 30
0.0
 11
320.569
 21
1.77078
 31
0.0
  0
LINE
  8
0
 62
     0
 10
320.569
 20
1.77078
 30
0.0
 11
320.453
 21
1.56407
 31
0.0
  0
LINE
  8
0
 62
     0
 10
320.453
 20
1.56407
 30
0.0
 11
320.324
 21
1.36839
 31
0.0
  0
LINE
  8
0
 62
     0
 10
320.324
 20
1.36839
 30
0.0
 11
320.178
 21
1.18374
 31
0.0
  0
LINE
  8
0
 62
     0
 10
320.178
 20
1.18374
 30
0.0
 11
320.018
 21
1.0101
 31
0.0
  0
LINE
  8
0
 62
     0
 10
320.018
 20
1.0101
 30
0.0
 11
319.844
 21
0.850251
 31
0.0
  0
LINE
  8
0
 62
     0
 10
319.844
 20
0.850251
 30
0.0
 11
319.659
 21
0.704176
 31
0.0
  0
LINE
  8
0
 62
     0
 10
319.659
 20
0.704176
 30
0.0
 11
319.464
 21
0.574643
 31
0.0
  0
LINE
  8
0
 62
     0
 10
319.464
 20
0.574643
 30
0.0
 11
319.257
 21
0.458886
 31
0.0
  0
LINE
  8
0
 62
     0
 10
319.257
 20
0.458886
 30
0.0
 11
319.045
 21
0.359668
 31
0.0
  0
LINE
  8
0
 62
     0
 10
319.045
 20
0.359668
 30
0.0
 11
318.823
 21
0.278364
 31
0.0
  0
LINE
  8
0
 62
     0
 10
318.823
 20
0.278364
 30
0.0
 11
318.597
 21
0.214974
 31
0.0
  0
LINE
  8
0
 62
     0
 10
318.597
 20
0.214974
 30
0.0
 11
318.365
 21
0.168121
 31
0.0
  0
LINE
  8
0
 62
     0
 10
318.365
 20
0.168121
 30
0.0
 11
318.131
 21
0.141938
 31
0.0
  0
LINE
  8
0
 62
     0
 10
318.131
 20
0.141938
 30
0.0
 11
317.897
 21
0.130914
 31
0.0
  0
LINE
  8
0
 62
     0
 10
317.897
 20
0.130914
 30
0.0
 11
3.09507
 21
0.130914
 31
0.0
  0
LINE
  8
0
 62
     0
 10
3.09507
 20
0.130914
 30
0.0
 11
2.85943
 21
0.141938
 31
0.0
  0
LINE
  8
0
 62
     0
 10
2.85943
 20
0.141938
 30
0.0
 11
2.62516
 21
0.168121
 31
0.0
  0
LINE
  8
0
 62
     0
 10
2.62516
 20
0.168121
 30
0.0
 11
2.39503
 21
0.214974
 31
0.0
  0
LINE
  8
0
 62
     0
 10
2.39503
 20
0.214974
 30
0.0
 11
2.16765
 21
0.278364
 31
0.0
  0
LINE
  8
0
 62
     0
 10
2.16765
 20
0.278364
 30
0.0
 11
1.94717
 21
0.359668
 31
0.0
  0
LINE
  8
0
 62
     0
 10
1.94717
 20
0.359668
 30
0.0
 11
1.73357
 21
0.458886
 31
0.0
  0
LINE
  8
0
 62
     0
 10
1.73357
 20
0.458886
 30
0.0
 11
1.52687
 21
0.574643
 31
0.0
  0
LINE
  8
0
 62
     0
 10
1.52687
 20
0.574643
 30
0.0
 11
1.33119
 21
0.704176
 31
0.0
  0
LINE
  8
0
 62
     0
 10
1.33119
 20
0.704176
 30
0.0
 11
1.14653
 21
0.850251
 31
0.0
  0
LINE
  8
0
 62
     0
 10
1.14653
 20
0.850251
 30
0.0
 11
0.972894
 21
1.0101
 31
0.0
  0
LINE
  8
0
 62
     0
 10
0.972894
 20
1.0101
 30
0.0
 11
0.813043
 21
1.18374
 31
0.0
  0
LINE
  8
0
 62
     0
 10
0.813043
 20
1.18374
 30
0.0
 11
0.666972
 21
1.36839
 31
0.0
  0
LINE
  8
0
 62
     0
 10
0.666972
 20
1.36839
 30
0.0
 11
0.537436
 21
1.56407
 31
0.0
  0
LINE
  8
0
 62
     0
 10
0.537436
 20
1.56407
 30
0.0
 11
0.421679
 21
1.77078
 31
0.0
  0
LINE
  8
0
 62
     0
 10
0.421679
 20
1.77078
 30
0.0
 11
0.323839
 21
1.983
 31
0.0
  0
LINE
  8
0
 62
     0
 10
0.323839
 20
1.983
 30
0.0
 11
0.241157
 21
2.20486
 31
0.0
  0
LINE
  8
0
 62
     0
 10
0.241157
 20
2.20486
 30
0.0
 11
0.177767
 21
2.43086
 31
0.0
  0
LINE
  8
0
 62
     0
 10
0.177767
 20
2.43086
 30
0.0
 11
0.130914
 21
2.66237
 31
0.0
  0
LINE
  8
0
 62
     0
 10
0.130914
 20
2.66237
 30
0.0
 11
0.104731
 21
2.89664
 31
0.0
  0
LINE
  8
0
 62
     0
 10
0.104731
 20
2.89664
 30
0.0
 11
0.0950846
 21
3.13228
 31
0.0
  0
LINE
  8
0
 62
     0
 10
0.0950846
 20
3.13228
 30
0.0
 11
0.0950846
 21
127.433
 31
0.0
  0
LINE
  8
0
 62
     0
 10
0.0950846
 20
127.433
 30
0.0
 11
0.104731
 21
127.669
 31
0.0
  0
LINE
  8
0
 62
     0
 10
0.104731
 20
127.669
 30
0.0
 11
0.130914
 21
127.903
 31
0.0
  0
LINE
  8
0
 62
     0
 10
0.130914
 20
127.903
 30
0.0
 11
0.177767
 21
128.133
 31
0.0
  0
LINE
  8
0
 62
     0
 10
0.177767
 20
128.133
 30
0.0
 11
0.241157
 21
128.36
 31
0.0
  0
LINE
  8
0
 62
     0
 10
0.241157
 20
128.36
 30
0.0
 11
0.323839
 21
128.58
 31
0.0
  0
LINE
  8
0
 62
     0
 10
0.323839
 20
128.58
 30
0.0
 11
0.421679
 21
128.794
 31
0.0
  0
LINE
  8
0
 62
     0
 10
0.421679
 20
128.794
 30
0.0
 11
0.537436
 21
129.001
 31
0.0
  0
LINE
  8
0
 62
     0
 10
0.537436
 20
129.001
 30
0.0
 11
0.666972
 21
129.197
 31
0.0
  0
LINE
  8
0
 62
     0
 10
0.666972
 20
129.197
 30
0.0
 11
0.813043
 21
129.381
 31
0.0
  0
LINE
  8
0
 62
     0
 10
0.813043
 20
129.381
 30
0.0
 11
0.972894
 21
129.555
 31
0.0
  0
LINE
  8
0
 62
     0
 10
0.972894
 20
129.555
 30
0.0
 11
1.14653
 21
129.715
 31
0.0
  0
LINE
  8
0
 62
     0
 10
1.14653
 20
129.715
 30
0.0
 11
1.33119
 21
129.861
 31
0.0
  0
LINE
  8
0
 62
     0
 10
1.33119
 20
129.861
 30
0.0
 11
1.52687
 21
129.99
 31
0.0
  0
LINE
  8
0
 62
     0
 10
1.52687
 20
129.99
 30
0.0
 11
1.73357
 21
130.106
 31
0.0
  0
LINE
  8
0
 62
     0
 10
1.73357
 20
130.106
 30
0.0
 11
1.94717
 21
130.204
 31
0.0
  0
LINE
  8
0
 62
     0
 10
1.94717
 20
130.204
 30
0.0
 11
2.16765
 21
130.286
 31
0.0
  0
LINE
  8
0
 62
     0
 10
2.16765
 20
130.286
 30
0.0
 11
2.39503
 21
130.35
 31
0.0
  0
LINE
  8
0
 62
     0
 10
2.39503
 20
130.35
 30
0.0
 11
2.62516
 21
130.397
 31
0.0
  0
LINE
  8
0
 62
     0
 10
2.62516
 20
130.397
 30
0.0
 11
2.85943
 21
130.423
 31
0.0
  0
LINE
  8
0
 62
     0
 10
2.85943
 20
130.423
 30
0.0
 11
3.09507
 21
130.433
 31
0.0
  0
LINE
  8
0
 62
     0
 10
3.09507
 20
130.433
 30
0.0
 11
317.897
 21
130.433
 31
0.0
  0
LINE
  8
0
 62
     0
 10
2.60036
 20
4.65363
 30
0.0
 11
2.15387
 21
4.42627
 31
0.0
  0
LINE
  8
0
 62
     0
 10
2.15387
 20
4.42627
 30
0.0
 11
1.8011
 21
4.07211
 31
0.0
  0
LINE
  8
0
 62
     0
 10
1.8011
 20
4.07211
 30
0.0
 11
1.57372
 21
3.6256
 31
0.0
  0
LINE
  8
0
 62
     0
 10
1.57372
 20
3.6256
 30
0.0
 11
1.49517
 21
3.1309
 31
0.0
  0
LINE
  8
0
 62
     0
 10
1.49517
 20
3.1309
 30
0.0
 11
1.57372
 21
2.63756
 31
0.0
  0
LINE
  8
0
 62
     0
 10
1.57372
 20
2.63756
 30
0.0
 11
1.8011
 21
2.19108
 31
0.0
  0
LINE
  8
0
 62
     0
 10
1.8011
 20
2.19108
 30
0.0
 11
2.15387
 21
1.83692
 31
0.0
  0
LINE
  8
0
 62
     0
 10
2.15387
 20
1.83692
 30
0.0
 11
2.60036
 21
1.61093
 31
0.0
  0
LINE
  8
0
 62
     0
 10
2.60036
 20
1.61093
 30
0.0
 11
3.09507
 21
1.53238
 31
0.0
  0
LINE
  8
0
 62
     0
 10
3.09507
 20
1.53238
 30
0.0
 11
3.5898
 21
1.61093
 31
0.0
  0
LINE
  8
0
 62
     0
 10
3.5898
 20
1.61093
 30
0.0
 11
4.0349
 21
1.83692
 31
0.0
  0
LINE
  8
0
 62
     0
 10
4.0349
 20
1.83692
 30
0.0
 11
4.38905
 21
2.19108
 31
0.0
  0
LINE
  8
0
 62
     0
 10
4.38905
 20
2.19108
 30
0.0
 11
4.61641
 21
2.63756
 31
0.0
  0
LINE
  8
0
 62
     0
 10
4.61641
 20
2.63756
 30
0.0
 11
4.69498
 21
3.1309
 31
0.0
  0
LINE
  8
0
 62
     0
 10
4.69498
 20
3.1309
 30
0.0
 11
4.61641
 21
3.6256
 31
0.0
  0
LINE
  8
0
 62
     0
 10
4.61641
 20
3.6256
 30
0.0
 11
4.38905
 21
4.07211
 31
0.0
  0
LINE
  8
0
 62
     0
 10
4.38905
 20
4.07211
 30
0.0
 11
4.0349
 21
4.42627
 31
0.0
  0
LINE
  8
0
 62
     0
 10
4.0349
 20
4.42627
 30
0.0
 11
3.5898
 21
4.65363
 31
0.0
  0
LINE
  8
0
 62
     0
 10
3.5898
 20
4.65363
 30
0.0
 11
3.09507
 21
4.73082
 31
0.0
  0
LINE
  8
0
 62
     0
 10
3.09507
 20
4.73082
 30
0.0
 11
2.60036
 21
4.65363
 31
0.0
  0
LINE
  8
0
 62
     0
 10
107.534
 20
4.65363
 30
0.0
 11
107.089
 21
4.42627
 31
0.0
  0
LINE
  8
0
 62
     0
 10
107.089
 20
4.42627
 30
0.0
 11
106.735
 21
4.07211
 31
0.0
  0
LINE
  8
0
 62
     0
 10
106.735
 20
4.07211
 30
0.0
 11
106.506
 21
3.6256
 31
0.0
  0
LINE
  8
0
 62
     0
 10
106.506
 20
3.6256
 30
0.0
 11
106.429
 21
3.1309
 31
0.0
  0
LINE
  8
0
 62
     0
 10
106.429
 20
3.1309
 30
0.0
 11
106.506
 21
2.63756
 31
0.0
  0
LINE
  8
0
 62
     0
 10
106.506
 20
2.63756
 30
0.0
 11
106.735
 21
2.19108
 31
0.0
  0
LINE
  8
0
 62
     0
 10
106.735
 20
2.19108
 30
0.0
 11
107.089
 21
1.83692
 31
0.0
  0
LINE
  8
0
 62
     0
 10
107.089
 20
1.83692
 30
0.0
 11
107.534
 21
1.61093
 31
0.0
  0
LINE
  8
0
 62
     0
 10
107.534
 20
1.61093
 30
0.0
 11
108.029
 21
1.53238
 31
0.0
  0
LINE
  8
0
 62
     0
 10
108.029
 20
1.53238
 30
0.0
 11
108.523
 21
1.61093
 31
0.0
  0
LINE
  8
0
 62
     0
 10
108.523
 20
1.61093
 30
0.0
 11
108.97
 21
1.83692
 31
0.0
  0
LINE
  8
0
 62
     0
 10
108.97
 20
1.83692
 30
0.0
 11
109.324
 21
2.19108
 31
0.0
  0
LINE
  8
0
 62
     0
 10
109.324
 20
2.19108
 30
0.0
 11
109.55
 21
2.63756
 31
0.0
  0
LINE
  8
0
 62
     0
 10
109.55
 20
2.63756
 30
0.0
 11
109.629
 21
3.1309
 31
0.0
  0
LINE
  8
0
 62
     0
 10
109.629
 20
3.1309
 30
0.0
 11
109.55
 21
3.6256
 31
0.0
  0
LINE
  8
0
 62
     0
 10
109.55
 20
3.6256
 30
0.0
 11
109.324
 21
4.07211
 31
0.0
  0
LINE
  8
0
 62
     0
 10
109.324
 20
4.07211
 30
0.0
 11
108.97
 21
4.42627
 31
0.0
  0
LINE
  8
0
 62
     0
 10
108.97
 20
4.42627
 30
0.0
 11
108.523
 21
4.65363
 31
0.0
  0
LINE
  8
0
 62
     0
 10
108.523
 20
4.65363
 30
0.0
 11
108.029
 21
4.73082
 31
0.0
  0
LINE
  8
0
 62
     0
 10
108.029
 20
4.73082
 30
0.0
 11
107.534
 21
4.65363
 31
0.0
  0
LINE
  8
0
 62
     0
 10
212.467
 20
4.65363
 30
0.0
 11
212.021
 21
4.42627
 31
0.0
  0
LINE
  8
0
 62
     0
 10
212.021
 20
4.42627
 30
0.0
 11
211.668
 21
4.07211
 31
0.0
  0
LINE
  8
0
 62
     0
 10
211.668
 20
4.07211
 30
0.0
 11
211.441
 21
3.6256
 31
0.0
  0
LINE
  8
0
 62
     0
 10
211.441
 20
3.6256
 30
0.0
 11
211.362
 21
3.1309
 31
0.0
  0
LINE
  8
0
 62
     0
 10
211.362
 20
3.1309
 30
0.0
 11
211.441
 21
2.63756
 31
0.0
  0
LINE
  8
0
 62
     0
 10
211.441
 20
2.63756
 30
0.0
 11
211.668
 21
2.19108
 31
0.0
  0
LINE
  8
0
 62
     0
 10
211.668
 20
2.19108
 30
0.0
 11
212.021
 21
1.83692
 31
0.0
  0
LINE
  8
0
 62
     0
 10
212.021
 20
1.83692
 30
0.0
 11
212.467
 21
1.61093
 31
0.0
  0
LINE
  8
0
 62
     0
 10
212.467
 20
1.61093
 30
0.0
 11
212.962
 21
1.53238
 31
0.0
  0
LINE
  8
0
 62
     0
 10
212.962
 20
1.53238
 30
0.0
 11
213.457
 21
1.61093
 31
0.0
  0
LINE
  8
0
 62
     0
 10
213.457
 20
1.61093
 30
0.0
 11
213.902
 21
1.83692
 31
0.0
  0
LINE
  8
0
 62
     0
 10
213.902
 20
1.83692
 30
0.0
 11
214.256
 21
2.19108
 31
0.0
  0
LINE
  8
0
 62
     0
 10
214.256
 20
2.19108
 30
0.0
 11
214.485
 21
2.63756
 31
0.0
  0
LINE
  8
0
 62
     0
 10
214.485
 20
2.63756
 30
0.0
 11
214.562
 21
3.1309
 31
0.0
  0
LINE
  8
0
 62
     0
 10
214.562
 20
3.1309
 30
0.0
 11
214.485
 21
3.6256
 31
0.0
  0
LINE
  8
0
 62
     0
 10
214.485
 20
3.6256
 30
0.0
 11
214.256
 21
4.07211
 31
0.0
  0
LINE
  8
0
 62
     0
 10
214.256
 20
4.07211
 30
0.0
 11
213.902
 21
4.42627
 31
0.0
  0
LINE
  8
0
 62
     0
 10
213.902
 20
4.42627
 30
0.0
 11
213.457
 21
4.65363
 31
0.0
  0
LINE
  8
0
 62
     0
 10
213.457
 20
4.65363
 30
0.0
 11
212.962
 21
4.73082
 31
0.0
  0
LINE
  8
0
 62
     0
 10
212.962
 20
4.73082
 30
0.0
 11
212.467
 21
4.65363
 31
0.0
  0
LINE
  8
0
 62
     0
 10
317.402
 20
4.65363
 30
0.0
 11
316.956
 21
4.42627
 31
0.0
  0
LINE
  8
0
 62
     0
 10
316.956
 20
4.42627
 30
0.0
 11
316.601
 21
4.07211
 31
0.0
  0
LINE
  8
0
 62
     0
 10
316.601
 20
4.07211
 30
0.0
 11
316.374
 21
3.6256
 31
0.0
  0
LINE
  8
0
 62
     0
 10
316.374
 20
3.6256
 30
0.0
 11
316.297
 21
3.1309
 31
0.0
  0
LINE
  8
0
 62
     0
 10
316.297
 20
3.1309
 30
0.0
 11
316.374
 21
2.63756
 31
0.0
  0
LINE
  8
0
 62
     0
 10
316.374
 20
2.63756
 30
0.0
 11
316.601
 21
2.19108
 31
0.0
  0
LINE
  8
0
 62
     0
 10
316.601
 20
2.19108
 30
0.0
 11
316.956
 21
1.83692
 31
0.0
  0
LINE
  8
0
 62
     0
 10
316.956
 20
1.83692
 30
0.0
 11
317.402
 21
1.61093
 31
0.0
  0
LINE
  8
0
 62
     0
 10
317.402
 20
1.61093
 30
0.0
 11
317.897
 21
1.53238
 31
0.0
  0
LINE
  8
0
 62
     0
 10
317.897
 20
1.53238
 30
0.0
 11
318.39
 21
1.61093
 31
0.0
  0
LINE
  8
0
 62
     0
 10
318.39
 20
1.61093
 30
0.0
 11
318.837
 21
1.83692
 31
0.0
  0
LINE
  8
0
 62
     0
 10
318.837
 20
1.83692
 30
0.0
 11
319.191
 21
2.19108
 31
0.0
  0
LINE
  8
0
 62
     0
 10
319.191
 20
2.19108
 30
0.0
 11
319.417
 21
2.63756
 31
0.0
  0
LINE
  8
0
 62
     0
 10
319.417
 20
2.63756
 30
0.0
 11
319.497
 21
3.1309
 31
0.0
  0
LINE
  8
0
 62
     0
 10
319.497
 20
3.1309
 30
0.0
 11
319.417
 21
3.6256
 31
0.0
  0
LINE
  8
0
 62
     0
 10
319.417
 20
3.6256
 30
0.0
 11
319.191
 21
4.07211
 31
0.0
  0
LINE
  8
0
 62
     0
 10
319.191
 20
4.07211
 30
0.0
 11
318.837
 21
4.42627
 31
0.0
  0
LINE
  8
0
 62
     0
 10
318.837
 20
4.42627
 30
0.0
 11
318.39
 21
4.65363
 31
0.0
  0
LINE
  8
0
 62
     0
 10
318.39
 20
4.65363
 30
0.0
 11
317.897
 21
4.73082
 31
0.0
  0
LINE
  8
0
 62
     0
 10
317.897
 20
4.73082
 30
0.0
 11
317.402
 21
4.65363
 31
0.0
  0
LINE
  8
0
 62
     0
 10
6.09505
 20
124.433
 30
0.0
 11
314.897
 21
124.433
 31
0.0
  0
LINE
  8
0
 62
     0
 10
314.897
 20
124.433
 30
0.0
 11
314.897
 21
6.13227
 31
0.0
  0
LINE
  8
0
 62
     0
 10
314.897
 20
6.13227
 30
0.0
 11
6.09505
 21
6.13227
 31
0.0
  0
LINE
  8
0
 62
     0
 10
6.09505
 20
6.13227
 30
0.0
 11
6.09505
 21
124.433
 31
0.0
  0
LINE
  8
0
 62
     0
 10
2.60036
 20
66.8045
 30
0.0
 11
2.15387
 21
66.5759
 31
0.0
  0
LINE
  8
0
 62
     0
 10
2.15387
 20
66.5759
 30
0.0
 11
1.8011
 21
66.2217
 31
0.0
  0
LINE
  8
0
 62
     0
 10
1.8011
 20
66.2217
 30
0.0
 11
1.57372
 21
65.7765
 31
0.0
  0
LINE
  8
0
 62
     0
 10
1.57372
 20
65.7765
 30
0.0
 11
1.49517
 21
65.2819
 31
0.0
  0
LINE
  8
0
 62
     0
 10
1.49517
 20
65.2819
 30
0.0
 11
1.57372
 21
64.7883
 31
0.0
  0
LINE
  8
0
 62
     0
 10
1.57372
 20
64.7883
 30
0.0
 11
1.8011
 21
64.3421
 31
0.0
  0
LINE
  8
0
 62
     0
 10
1.8011
 20
64.3421
 30
0.0
 11
2.15387
 21
63.9879
 31
0.0
  0
LINE
  8
0
 62
     0
 10
2.15387
 20
63.9879
 30
0.0
 11
2.60036
 21
63.7604
 31
0.0
  0
LINE
  8
0
 62
     0
 10
2.60036
 20
63.7604
 30
0.0
 11
3.09507
 21
63.682
 31
0.0
  0
LINE
  8
0
 62
     0
 10
3.09507
 20
63.682
 30
0.0
 11
3.5898
 21
63.7604
 31
0.0
  0
LINE
  8
0
 62
     0
 10
3.5898
 20
63.7604
 30
0.0
 11
4.0349
 21
63.9879
 31
0.0
  0
LINE
  8
0
 62
     0
 10
4.0349
 20
63.9879
 30
0.0
 11
4.38905
 21
64.3421
 31
0.0
  0
LINE
  8
0
 62
     0
 10
4.38905
 20
64.3421
 30
0.0
 11
4.61641
 21
64.7883
 31
0.0
  0
LINE
  8
0
 62
     0
 10
4.61641
 20
64.7883
 30
0.0
 11
4.69498
 21
65.2819
 31
0.0
  0
LINE
  8
0
 62
     0
 10
4.69498
 20
65.2819
 30
0.0
 11
4.61641
 21
65.7765
 31
0.0
  0
LINE
  8
0
 62
     0
 10
4.61641
 20
65.7765
 30
0.0
 11
4.38905
 21
66.2217
 31
0.0
  0
LINE
  8
0
 62
     0
 10
4.38905
 20
66.2217
 30
0.0
 11
4.0349
 21
66.5759
 31
0.0
  0
LINE
  8
0
 62
     0
 10
4.0349
 20
66.5759
 30
0.0
 11
3.5898
 21
66.8045
 31
0.0
  0
LINE
  8
0
 62
     0
 10
3.5898
 20
66.8045
 30
0.0
 11
3.09507
 21
66.8817
 31
0.0
  0
LINE
  8
0
 62
     0
 10
3.09507
 20
66.8817
 30
0.0
 11
2.60036
 21
66.8045
 31
0.0
  0
LINE
  8
0
 62
     0
 10
317.402
 20
66.8045
 30
0.0
 11
316.956
 21
66.5759
 31
0.0
  0
LINE
  8
0
 62
     0
 10
316.956
 20
66.5759
 30
0.0
 11
316.601
 21
66.2217
 31
0.0
  0
LINE
  8
0
 62
     0
 10
316.601
 20
66.2217
 30
0.0
 11
316.374
 21
65.7765
 31
0.0
  0
LINE
  8
0
 62
     0
 10
316.374
 20
65.7765
 30
0.0
 11
316.297
 21
65.2819
 31
0.0
  0
LINE
  8
0
 62
     0
 10
316.297
 20
65.2819
 30
0.0
 11
316.374
 21
64.7883
 31
0.0
  0
LINE
  8
0
 62
     0
 10
316.374
 20
64.7883
 30
0.0
 11
316.601
 21
64.3421
 31
0.0
  0
LINE
  8
0
 62
     0
 10
316.601
 20
64.3421
 30
0.0
 11
316.956
 21
63.9879
 31
0.0
  0
LINE
  8
0
 62
     0
 10
316.956
 20
63.9879
 30
0.0
 11
317.402
 21
63.7604
 31
0.0
  0
LINE
  8
0
 62
     0
 10
317.402
 20
63.7604
 30
0.0
 11
317.897
 21
63.682
 31
0.0
  0
LINE
  8
0
 62
     0
 10
317.897
 20
63.682
 30
0.0
 11
318.39
 21
63.7604
 31
0.0
  0
LINE
  8
0
 62
     0
 10
318.39
 20
63.7604
 30
0.0
 11
318.837
 21
63.9879
 31
0.0
  0
LINE
  8
0
 62
     0
 10
318.837
 20
63.9879
 30
0.0
 11
319.191
 21
64.3421
 31
0.0
  0
LINE
  8
0
 62
     0
 10
319.191
 20
64.3421
 30
0.0
 11
319.417
 21
64.7883
 31
0.0
  0
LINE
  8
0
 62
     0
 10
319.417
 20
64.7883
 30
0.0
 11
319.497
 21
65.2819
 31
0.0
  0
LINE
  8
0
 62
     0
 10
319.497
 20
65.2819
 30
0.0
 11
319.417
 21
65.7765
 31
0.0
  0
LINE
  8
0
 62
     0
 10
319.417
 20
65.7765
 30
0.0
 11
319.191
 21
66.2217
 31
0.0
  0
LINE
  8
0
 62
     0
 10
319.191
 20
66.2217
 30
0.0
 11
318.837
 21
66.5759
 31
0.0
  0
LINE
  8
0
 62
     0
 10
318.837
 20
66.5759
 30
0.0
 11
318.39
 21
66.8045
 31
0.0
  0
LINE
  8
0
 62
     0
 10
318.39
 20
66.8045
 30
0.0
 11
317.897
 21
66.8817
 31
0.0
  0
LINE
  8
0
 62
     0
 10
317.897
 20
66.8817
 30
0.0
 11
317.402
 21
66.8045
 31
0.0
  0
LINE
  8
0
 62
     0
 10
2.60036
 20
128.954
 30
0.0
 11
2.15387
 21
128.727
 31
0.0
  0
LINE
  8
0
 62
     0
 10
2.15387
 20
128.727
 30
0.0
 11
1.8011
 21
128.374
 31
0.0
  0
LINE
  8
0
 62
     0
 10
1.8011
 20
128.374
 30
0.0
 11
1.57372
 21
127.927
 31
0.0
  0
LINE
  8
0
 62
     0
 10
1.57372
 20
127.927
 30
0.0
 11
1.49517
 21
127.433
 31
0.0
  0
LINE
  8
0
 62
     0
 10
1.49517
 20
127.433
 30
0.0
 11
1.57372
 21
126.938
 31
0.0
  0
LINE
  8
0
 62
     0
 10
1.57372
 20
126.938
 30
0.0
 11
1.8011
 21
126.493
 31
0.0
  0
LINE
  8
0
 62
     0
 10
1.8011
 20
126.493
 30
0.0
 11
2.15387
 21
126.139
 31
0.0
  0
LINE
  8
0
 62
     0
 10
2.15387
 20
126.139
 30
0.0
 11
2.60036
 21
125.911
 31
0.0
  0
LINE
  8
0
 62
     0
 10
2.60036
 20
125.911
 30
0.0
 11
3.09507
 21
125.833
 31
0.0
  0
LINE
  8
0
 62
     0
 10
3.09507
 20
125.833
 30
0.0
 11
3.5898
 21
125.911
 31
0.0
  0
LINE
  8
0
 62
     0
 10
3.5898
 20
125.911
 30
0.0
 11
4.0349
 21
126.139
 31
0.0
  0
LINE
  8
0
 62
     0
 10
4.0349
 20
126.139
 30
0.0
 11
4.38905
 21
126.493
 31
0.0
  0
LINE
  8
0
 62
     0
 10
4.38905
 20
126.493
 30
0.0
 11
4.61641
 21
126.938
 31
0.0
  0
LINE
  8
0
 62
     0
 10
4.61641
 20
126.938
 30
0.0
 11
4.69498
 21
127.433
 31
0.0
  0
LINE
  8
0
 62
     0
 10
4.69498
 20
127.433
 30
0.0
 11
4.61641
 21
127.927
 31
0.0
  0
LINE
  8
0
 62
     0
 10
4.61641
 20
127.927
 30
0.0
 11
4.38905
 21
128.374
 31
0.0
  0
LINE
  8
0
 62
     0
 10
4.38905
 20
128.374
 30
0.0
 11
4.0349
 21
128.727
 31
0.0
  0
LINE
  8
0
 62
     0
 10
4.0349
 20
128.727
 30
0.0
 11
3.5898
 21
128.954
 31
0.0
  0
LINE
  8
0
 62
     0
 10
3.5898
 20
128.954
 30
0.0
 11
3.09507
 21
129.033
 31
0.0
  0
LINE
  8
0
 62
     0
 10
3.09507
 20
129.033
 30
0.0
 11
2.60036
 21
128.954
 31
0.0
  0
LINE
  8
0
 62
     0
 10
317.402
 20
128.954
 30
0.0
 11
316.956
 21
128.727
 31
0.0
  0
LINE
  8
0
 62
     0
 10
316.956
 20
128.727
 30
0.0
 11
316.601
 21
128.374
 31
0.0
  0
LINE
  8
0
 62
     0
 10
316.601
 20
128.374
 30
0.0
 11
316.374
 21
127.927
 31
0.0
  0
LINE
  8
0
 62
     0
 10
316.374
 20
127.927
 30
0.0
 11
316.297
 21
127.433
 31
0.0
  0
LINE
  8
0
 62
     0
 10
316.297
 20
127.433
 30
0.0
 11
316.374
 21
126.938
 31
0.0
  0
LINE
  8
0
 62
     0
 10
316.374
 20
126.938
 30
0.0
 11
316.601
 21
126.493
 31
0.0
  0
LINE
  8
0
 62
     0
 10
316.601
 20
126.493
 30
0.0
 11
316.956
 21
126.139
 31
0.0
  0
LINE
  8
0
 62
     0
 10
316.956
 20
126.139
 30
0.0
 11
317.402
 21
125.911
 31
0.0
  0
LINE
  8
0
 62
     0
 10
317.402
 20
125.911
 30
0.0
 11
317.897
 21
125.833
 31
0.0
  0
LINE
  8
0
 62
     0
 10
317.897
 20
125.833
 30
0.0
 11
318.39
 21
125.911
 31
0.0
  0
LINE
  8
0
 62
     0
 10
318.39
 20
125.911
 30
0.0
 11
318.837
 21
126.139
 31
0.0
  0
LINE
  8
0
 62
     0
 10
318.837
 20
126.139
 30
0.0
 11
319.191
 21
126.493
 31
0.0
  0
LINE
  8
0
 62
     0
 10
319.191
 20
126.493
 30
0.0
 11
319.417
 21
126.938
 31
0.0
  0
LINE
  8
0
 62
     0
 10
319.417
 20
126.938
 30
0.0
 11
319.497
 21
127.433
 31
0.0
  0
LINE
  8
0
 62
     0
 10
319.497
 20
127.433
 30
0.0
 11
319.417
 21
127.927
 31
0.0
  0
LINE
  8
0
 62
     0
 10
319.417
 20
127.927
 30
0.0
 11
319.191
 21
128.374
 31
0.0
  0
LINE
  8
0
 62
     0
 10
319.191
 20
128.374
 30
0.0
 11
318.837
 21
128.727
 31
0.0
  0
LINE
  8
0
 62
     0
 10
318.837
 20
128.727
 30
0.0
 11
318.39
 21
128.954
 31
0.0
  0
LINE
  8
0
 62
     0
 10
318.39
 20
128.954
 30
0.0
 11
317.897
 21
129.033
 31
0.0
  0
LINE
  8
0
 62
     0
 10
317.897
 20
129.033
 30
0.0
 11
317.402
 21
128.954
 31
0.0
  0
LINE
  8
0
 62
     0
 10
212.467
 20
128.954
 30
0.0
 11
212.021
 21
128.727
 31
0.0
  0
LINE
  8
0
 62
     0
 10
212.021
 20
128.727
 30
0.0
 11
211.668
 21
128.374
 31
0.0
  0
LINE
  8
0
 62
     0
 10
211.668
 20
128.374
 30
0.0
 11
211.441
 21
127.927
 31
0.0
  0
LINE
  8
0
 62
     0
 10
211.441
 20
127.927
 30
0.0
 11
211.362
 21
127.433
 31
0.0
  0
LINE
  8
0
 62
     0
 10
211.362
 20
127.433
 30
0.0
 11
211.441
 21
126.938
 31
0.0
  0
LINE
  8
0
 62
     0
 10
211.441
 20
126.938
 30
0.0
 11
211.668
 21
126.493
 31
0.0
  0
LINE
  8
0
 62
     0
 10
211.668
 20
126.493
 30
0.0
 11
212.021
 21
126.139
 31
0.0
  0
LINE
  8
0
 62
     0
 10
212.021
 20
126.139
 30
0.0
 11
212.467
 21
125.911
 31
0.0
  0
LINE
  8
0
 62
     0
 10
212.467
 20
125.911
 30
0.0
 11
212.962
 21
125.833
 31
0.0
  0
LINE
  8
0
 62
     0
 10
212.962
 20
125.833
 30
0.0
 11
213.457
 21
125.911
 31
0.0
  0
LINE
  8
0
 62
     0
 10
213.457
 20
125.911
 30
0.0
 11
213.902
 21
126.139
 31
0.0
  0
LINE
  8
0
 62
     0
 10
213.902
 20
126.139
 30
0.0
 11
214.256
 21
126.493
 31
0.0
  0
LINE
  8
0
 62
     0
 10
214.256
 20
126.493
 30
0.0
 11
214.485
 21
126.938
 31
0.0
  0
LINE
  8
0
 62
     0
 10
214.485
 20
126.938
 30
0.0
 11
214.562
 21
127.433
 31
0.0
  0
LINE
  8
0
 62
     0
 10
214.562
 20
127.433
 30
0.0
 11
214.485
 21
127.927
 31
0.0
  0
LINE
  8
0
 62
     0
 10
214.485
 20
127.927
 30
0.0
 11
214.256
 21
128.374
 31
0.0
  0
LINE
  8
0
 62
     0
 10
214.256
 20
128.374
 30
0.0
 11
213.902
 21
128.727
 31
0.0
  0
LINE
  8
0
 62
     0
 10
213.902
 20
128.727
 30
0.0
 11
213.457
 21
128.954
 31
0.0
  0
LINE
  8
0
 62
     0
 10
213.457
 20
128.954
 30
0.0
 11
212.962
 21
129.033
 31
0.0
  0
LINE
  8
0
 62
     0
 10
212.962
 20
129.033
 30
0.0
 11
212.467
 21
128.954
 31
0.0
  0
LINE
  8
0
 62
     0
 10
107.534
 20
128.954
 30
0.0
 11
107.089
 21
128.727
 31
0.0
  0
LINE
  8
0
 62
     0
 10
107.089
 20
128.727
 30
0.0
 11
106.735
 21
128.374
 31
0.0
  0
LINE
  8
0
 62
     0
 10
106.735
 20
128.374
 30
0.0
 11
106.506
 21
127.927
 31
0.0
  0
LINE
  8
0
 62
     0
 10
106.506
 20
127.927
 30
0.0
 11
106.429
 21
127.433
 31
0.0
  0
LINE
  8
0
 62
     0
 10
106.429
 20
127.433
 30
0.0
 11
106.506
 21
126.938
 31
0.0
  0
LINE
  8
0
 62
     0
 10
106.506
 20
126.938
 30
0.0
 11
106.735
 21
126.493
 31
0.0
  0
LINE
  8
0
 62
     0
 10
106.735
 20
126.493
 30
0.0
 11
107.089
 21
126.139
 31
0.0
  0
LINE
  8
0
 62
     0
 10
107.089
 20
126.139
 30
0.0
 11
107.534
 21
125.911
 31
0.0
  0
LINE
  8
0
 62
     0
 10
107.534
 20
125.911
 30
0.0
 11
108.029
 21
125.833
 31
0.0
  0
LINE
  8
0
 62
     0
 10
108.029
 20
125.833
 30
0.0
 11
108.523
 21
125.911
 31
0.0
  0
LINE
  8
0
 62
     0
 10
108.523
 20
125.911
 30
0.0
 11
108.97
 21
126.139
 31
0.0
  0
LINE
  8
0
 62
     0
 10
108.97
 20
126.139
 30
0.0
 11
109.324
 21
126.493
 31
0.0
  0
LINE
  8
0
 62
     0
 10
109.324
 20
126.493
 30
0.0
 11
109.55
 21
126.938
 31
0.0
  0
LINE
  8
0
 62
     0
 10
109.55
 20
126.938
 30
0.0
 11
109.629
 21
127.433
 31
0.0
  0
LINE
  8
0
 62
     0
 10
109.629
 20
127.433
 30
0.0
 11
109.55
 21
127.927
 31
0.0
  0
LINE
  8
0
 62
     0
 10
109.55
 20
127.927
 30
0.0
 11
109.324
 21
128.374
 31
0.0
  0
LINE
  8
0
 62
     0
 10
109.324
 20
128.374
 30
0.0
 11
108.97
 21
128.727
 31
0.0
  0
LINE
  8
0
 62
     0
 10
108.97
 20
128.727
 30
0.0
 11
108.523
 21
128.954
 31
0.0
  0
LINE
  8
0
 62
     0
 10
108.523
 20
128.954
 30
0.0
 11
108.029
 21
129.033
 31
0.0
  0
LINE
  8
0
 62
     0
 10
108.029
 20
129.033
 30
0.0
 11
107.534
 21
128.954
 31
0.0
  0
ENDSEC
  0
EOF
