  0
SECTION
  2
HEADER
  9
$ACADVER
  1
AC1009
  9
$EXTMIN
 10
0.0
 20
0.0
 30
0.0
  9
$EXTMAX
 10
1000.0
 20
1000.0
 30
0.0
  9
$FILLMODE
 70
 0
  9
$SPLFRAME
 70
 1
  0
ENDSEC
  0
SECTION
  2
TABLES
  0
TABLE
  2
LAYER
 70
1
  0
LAYER
  2
0
 70
     0
 62
     7
  6
CONTINUOUS
  0
ENDTAB
  0
ENDSEC
  0
SECTION
  2
ENTITIES
  0
LINE
  8
0
 62
     0
 10
317.897
 20
130.433
 30
0.0
 11
318.131
 21
130.423
 31
0.0
  0
LINE
  8
0
 62
     0
 10
318.131
 20
130.423
 30
0.0
 11
318.365
 21
130.397
 31
0.0
  0
LINE
  8
0
 62
     0
 10
318.365
 20
130.397
 30
0.0
 11
318.597
 21
130.35
 31
0.0
  0
LINE
  8
0
 62
     0
 10
318.597
 20
130.35
 30
0.0
 11
318.823
 21
130.286
 31
0.0
  0
LINE
  8
0
 62
     0
 10
318.823
 20
130.286
 30
0.0
 11
319.045
 21
130.204
 31
0.0
  0
LINE
  8
0
 62
     0
 10
319.045
 20
130.204
 30
0.0
 11
319.257
 21
130.106
 31
0.0
  0
LINE
  8
0
 62
     0
 10
319.257
 20
130.106
 30
0.0
 11
319.464
 21
129.99
 31
0.0
  0
LINE
  8
0
 62
     0
 10
319.464
 20
129.99
 30
0.0
 11
319.659
 21
129.861
 31
0.0
  0
LINE
  8
0
 62
     0
 10
319.659
 20
129.861
 30
0.0
 11
319.844
 21
129.715
 31
0.0
  0
LINE
  8
0
 62
     0
 10
319.844
 20
129.715
 30
0.0
 11
320.018
 21
129.555
 31
0.0
  0
LINE
  8
0
 62
     0
 10
320.018
 20
129.555
 30
0.0
 11
320.178
 21
129.381
 31
0.0
  0
LINE
  8
0
 62
     0
 10
320.178
 20
129.381
 30
0.0
 11
320.324
 21
129.197
 31
0.0
  0
LINE
  8
0
 62
     0
 10
320.324
 20
129.197
 30
0.0
 11
320.453
 21
129.001
 31
0.0
  0
LINE
  8
0
 62
     0
 10
320.453
 20
129.001
 30
0.0
 11
320.569
 21
128.794
 31
0.0
  0
LINE
  8
0
 62
     0
 10
320.569
 20
128.794
 30
0.0
 11
320.668
 21
128.58
 31
0.0
  0
LINE
  8
0
 62
     0
 10
320.668
 20
128.58
 30
0.0
 11
320.749
 21
128.36
 31
0.0
  0
LINE
  8
0
 62
     0
 10
320.749
 20
128.36
 30
0.0
 11
320.813
 21
128.133
 31
0.0
  0
LINE
  8
0
 62
     0
 10
320.813
 20
128.133
 30
0.0
 11
320.86
 21
127.903
 31
0.0
  0
LINE
  8
0
 62
     0
 10
320.86
 20
127.903
 30
0.0
 11
320.886
 21
127.669
 31
0.0
  0
LINE
  8
0
 62
     0
 10
320.886
 20
127.669
 30
0.0
 11
320.897
 21
127.433
 31
0.0
  0
LINE
  8
0
 62
     0
 10
320.897
 20
127.433
 30
0.0
 11
320.897
 21
3.1309
 31
0.0
  0
LINE
  8
0
 62
     0
 10
320.897
 20
3.1309
 30
0.0
 11
320.886
 21
2.89664
 31
0.0
  0
LINE
  8
0
 62
     0
 10
320.886
 20
2.89664
 30
0.0
 11
320.86
 21
2.66237
 31
0.0
  0
LINE
  8
0
 62
     0
 10
320.86
 20
2.66237
 30
0.0
 11
320.813
 21
2.43086
 31
0.0
  0
LINE
  8
0
 62
     0
 10
320.813
 20
2.43086
 30
0.0
 11
320.749
 21
2.20486
 31
0.0
  0
LINE
  8
0
 62
     0
 10
320.749
 20
2.20486
 30
0.0
 11
320.668
 21
1.983
 31
0.0
  0
LINE
  8
0
 62
     0
 10
320.668
 20
1.983
 30
0.0
 11
320.569
 21
1.77078
 31
0.0
  0
LINE
  8
0
 62
     0
 10
320.569
 20
1.77078
 30
0.0
 11
320.453
 21
1.56407
 31
0.0
  0
LINE
  8
0
 62
     0
 10
320.453
 20
1.56407
 30
0.0
 11
320.324
 21
1.36839
 31
0.0
  0
LINE
  8
0
 62
     0
 10
320.324
 20
1.36839
 30
0.0
 11
320.178
 21
1.18374
 31
0.0
  0
LINE
  8
0
 62
     0
 10
320.178
 20
1.18374
 30
0.0
 11
320.018
 21
1.0101
 31
0.0
  0
LINE
  8
0
 62
     0
 10
320.018
 20
1.0101
 30
0.0
 11
319.844
 21
0.850251
 31
0.0
  0
LINE
  8
0
 62
     0
 10
319.844
 20
0.850251
 30
0.0
 11
319.659
 21
0.704176
 31
0.0
  0
LINE
  8
0
 62
     0
 10
319.659
 20
0.704176
 30
0.0
 11
319.464
 21
0.574643
 31
0.0
  0
LINE
  8
0
 62
     0
 10
319.464
 20
0.574643
 30
0.0
 11
319.257
 21
0.458886
 31
0.0
  0
LINE
  8
0
 62
     0
 10
319.257
 20
0.458886
 30
0.0
 11
319.045
 21
0.359668
 31
0.0
  0
LINE
  8
0
 62
     0
 10
319.045
 20
0.359668
 30
0.0
 11
318.823
 21
0.278364
 31
0.0
  0
LINE
  8
0
 62
     0
 10
318.823
 20
0.278364
 30
0.0
 11
318.597
 21
0.214974
 31
0.0
  0
LINE
  8
0
 62
     0
 10
318.597
 20
0.214974
 30
0.0
 11
318.365
 21
0.168121
 31
0.0
  0
LINE
  8
0
 62
     0
 10
318.365
 20
0.168121
 30
0.0
 11
318.131
 21
0.141938
 31
0.0
  0
LINE
  8
0
 62
     0
 10
318.131
 20
0.141938
 30
0.0
 11
317.897
 21
0.130914
 31
0.0
  0
LINE
  8
0
 62
     0
 10
317.897
 20
0.130914
 30
0.0
 11
3.09507
 21
0.130914
 31
0.0
  0
LINE
  8
0
 62
     0
 10
3.09507
 20
0.130914
 30
0.0
 11
2.85943
 21
0.141938
 31
0.0
  0
LINE
  8
0
 62
     0
 10
2.85943
 20
0.141938
 30
0.0
 11
2.62516
 21
0.168121
 31
0.0
  0
LINE
  8
0
 62
     0
 10
2.62516
 20
0.168121
 30
0.0
 11
2.39503
 21
0.214974
 31
0.0
  0
LINE
  8
0
 62
     0
 10
2.39503
 20
0.214974
 30
0.0
 11
2.16765
 21
0.278364
 31
0.0
  0
LINE
  8
0
 62
     0
 10
2.16765
 20
0.278364
 30
0.0
 11
1.94717
 21
0.359668
 31
0.0
  0
LINE
  8
0
 62
     0
 10
1.94717
 20
0.359668
 30
0.0
 11
1.73357
 21
0.458886
 31
0.0
  0
LINE
  8
0
 62
     0
 10
1.73357
 20
0.458886
 30
0.0
 11
1.52687
 21
0.574643
 31
0.0
  0
LINE
  8
0
 62
     0
 10
1.52687
 20
0.574643
 30
0.0
 11
1.33119
 21
0.704176
 31
0.0
  0
LINE
  8
0
 62
     0
 10
1.33119
 20
0.704176
 30
0.0
 11
1.14653
 21
0.850251
 31
0.0
  0
LINE
  8
0
 62
     0
 10
1.14653
 20
0.850251
 30
0.0
 11
0.972894
 21
1.0101
 31
0.0
  0
LINE
  8
0
 62
     0
 10
0.972894
 20
1.0101
 30
0.0
 11
0.813043
 21
1.18374
 31
0.0
  0
LINE
  8
0
 62
     0
 10
0.813043
 20
1.18374
 30
0.0
 11
0.666972
 21
1.36839
 31
0.0
  0
LINE
  8
0
 62
     0
 10
0.666972
 20
1.36839
 30
0.0
 11
0.537436
 21
1.56407
 31
0.0
  0
LINE
  8
0
 62
     0
 10
0.537436
 20
1.56407
 30
0.0
 11
0.421679
 21
1.77078
 31
0.0
  0
LINE
  8
0
 62
     0
 10
0.421679
 20
1.77078
 30
0.0
 11
0.323839
 21
1.983
 31
0.0
  0
LINE
  8
0
 62
     0
 10
0.323839
 20
1.983
 30
0.0
 11
0.241157
 21
2.20486
 31
0.0
  0
LINE
  8
0
 62
     0
 10
0.241157
 20
2.20486
 30
0.0
 11
0.177767
 21
2.43086
 31
0.0
  0
LINE
  8
0
 62
     0
 10
0.177767
 20
2.43086
 30
0.0
 11
0.130914
 21
2.66237
 31
0.0
  0
LINE
  8
0
 62
     0
 10
0.130914
 20
2.66237
 30
0.0
 11
0.104731
 21
2.89664
 31
0.0
  0
LINE
  8
0
 62
     0
 10
0.104731
 20
2.89664
 30
0.0
 11
0.0950846
 21
3.13228
 31
0.0
  0
LINE
  8
0
 62
     0
 10
0.0950846
 20
3.13228
 30
0.0
 11
0.0950846
 21
127.433
 31
0.0
  0
LINE
  8
0
 62
     0
 10
0.0950846
 20
127.433
 30
0.0
 11
0.104731
 21
127.669
 31
0.0
  0
LINE
  8
0
 62
     0
 10
0.104731
 20
127.669
 30
0.0
 11
0.130914
 21
127.903
 31
0.0
  0
LINE
  8
0
 62
     0
 10
0.130914
 20
127.903
 30
0.0
 11
0.177767
 21
128.133
 31
0.0
  0
LINE
  8
0
 62
     0
 10
0.177767
 20
128.133
 30
0.0
 11
0.241157
 21
128.36
 31
0.0
  0
LINE
  8
0
 62
     0
 10
0.241157
 20
128.36
 30
0.0
 11
0.323839
 21
128.58
 31
0.0
  0
LINE
  8
0
 62
     0
 10
0.323839
 20
128.58
 30
0.0
 11
0.421679
 21
128.794
 31
0.0
  0
LINE
  8
0
 62
     0
 10
0.421679
 20
128.794
 30
0.0
 11
0.537436
 21
129.001
 31
0.0
  0
LINE
  8
0
 62
     0
 10
0.537436
 20
129.001
 30
0.0
 11
0.666972
 21
129.197
 31
0.0
  0
LINE
  8
0
 62
     0
 10
0.666972
 20
129.197
 30
0.0
 11
0.813043
 21
129.381
 31
0.0
  0
LINE
  8
0
 62
     0
 10
0.813043
 20
129.381
 30
0.0
 11
0.972894
 21
129.555
 31
0.0
  0
LINE
  8
0
 62
     0
 10
0.972894
 20
129.555
 30
0.0
 11
1.14653
 21
129.715
 31
0.0
  0
LINE
  8
0
 62
     0
 10
1.14653
 20
129.715
 30
0.0
 11
1.33119
 21
129.861
 31
0.0
  0
LINE
  8
0
 62
     0
 10
1.33119
 20
129.861
 30
0.0
 11
1.52687
 21
129.99
 31
0.0
  0
LINE
  8
0
 62
     0
 10
1.52687
 20
129.99
 30
0.0
 11
1.73357
 21
130.106
 31
0.0
  0
LINE
  8
0
 62
     0
 10
1.73357
 20
130.106
 30
0.0
 11
1.94717
 21
130.204
 31
0.0
  0
LINE
  8
0
 62
     0
 10
1.94717
 20
130.204
 30
0.0
 11
2.16765
 21
130.286
 31
0.0
  0
LINE
  8
0
 62
     0
 10
2.16765
 20
130.286
 30
0.0
 11
2.39503
 21
130.35
 31
0.0
  0
LINE
  8
0
 62
     0
 10
2.39503
 20
130.35
 30
0.0
 11
2.62516
 21
130.397
 31
0.0
  0
LINE
  8
0
 62
     0
 10
2.62516
 20
130.397
 30
0.0
 11
2.85943
 21
130.423
 31
0.0
  0
LINE
  8
0
 62
     0
 10
2.85943
 20
130.423
 30
0.0
 11
3.09507
 21
130.433
 31
0.0
  0
LINE
  8
0
 62
     0
 10
3.09507
 20
130.433
 30
0.0
 11
317.897
 21
130.433
 31
0.0
  0
LINE
  8
0
 62
     0
 10
2.60036
 20
4.65363
 30
0.0
 11
2.15387
 21
4.42627
 31
0.0
  0
LINE
  8
0
 62
     0
 10
2.15387
 20
4.42627
 30
0.0
 11
1.8011
 21
4.07211
 31
0.0
  0
LINE
  8
0
 62
     0
 10
1.8011
 20
4.07211
 30
0.0
 11
1.57372
 21
3.6256
 31
0.0
  0
LINE
  8
0
 62
     0
 10
1.57372
 20
3.6256
 30
0.0
 11
1.49517
 21
3.1309
 31
0.0
  0
LINE
  8
0
 62
     0
 10
1.49517
 20
3.1309
 30
0.0
 11
1.57372
 21
2.63756
 31
0.0
  0
LINE
  8
0
 62
     0
 10
1.57372
 20
2.63756
 30
0.0
 11
1.8011
 21
2.19108
 31
0.0
  0
LINE
  8
0
 62
     0
 10
1.8011
 20
2.19108
 30
0.0
 11
2.15387
 21
1.83692
 31
0.0
  0
LINE
  8
0
 62
     0
 10
2.15387
 20
1.83692
 30
0.0
 11
2.60036
 21
1.61093
 31
0.0
  0
LINE
  8
0
 62
     0
 10
2.60036
 20
1.61093
 30
0.0
 11
3.09507
 21
1.53238
 31
0.0
  0
LINE
  8
0
 62
     0
 10
3.09507
 20
1.53238
 30
0.0
 11
3.5898
 21
1.61093
 31
0.0
  0
LINE
  8
0
 62
     0
 10
3.5898
 20
1.61093
 30
0.0
 11
4.0349
 21
1.83692
 31
0.0
  0
LINE
  8
0
 62
     0
 10
4.0349
 20
1.83692
 30
0.0
 11
4.38905
 21
2.19108
 31
0.0
  0
LINE
  8
0
 62
     0
 10
4.38905
 20
2.19108
 30
0.0
 11
4.61641
 21
2.63756
 31
0.0
  0
LINE
  8
0
 62
     0
 10
4.61641
 20
2.63756
 30
0.0
 11
4.69498
 21
3.1309
 31
0.0
  0
LINE
  8
0
 62
     0
 10
4.69498
 20
3.1309
 30
0.0
 11
4.61641
 21
3.6256
 31
0.0
  0
LINE
  8
0
 62
     0
 10
4.61641
 20
3.6256
 30
0.0
 11
4.38905
 21
4.07211
 31
0.0
  0
LINE
  8
0
 62
     0
 10
4.38905
 20
4.07211
 30
0.0
 11
4.0349
 21
4.42627
 31
0.0
  0
LINE
  8
0
 62
     0
 10
4.0349
 20
4.42627
 30
0.0
 11
3.5898
 21
4.65363
 31
0.0
  0
LINE
  8
0
 62
     0
 10
3.5898
 20
4.65363
 30
0.0
 11
3.09507
 21
4.73082
 31
0.0
  0
LINE
  8
0
 62
     0
 10
3.09507
 20
4.73082
 30
0.0
 11
2.60036
 21
4.65363
 31
0.0
  0
LINE
  8
0
 62
     0
 10
107.534
 20
4.65363
 30
0.0
 11
107.089
 21
4.42627
 31
0.0
  0
LINE
  8
0
 62
     0
 10
107.089
 20
4.42627
 30
0.0
 11
106.735
 21
4.07211
 31
0.0
  0
LINE
  8
0
 62
     0
 10
106.735
 20
4.07211
 30
0.0
 11
106.506
 21
3.6256
 31
0.0
  0
LINE
  8
0
 62
     0
 10
106.506
 20
3.6256
 30
0.0
 11
106.429
 21
3.1309
 31
0.0
  0
LINE
  8
0
 62
     0
 10
106.429
 20
3.1309
 30
0.0
 11
106.506
 21
2.63756
 31
0.0
  0
LINE
  8
0
 62
     0
 10
106.506
 20
2.63756
 30
0.0
 11
106.735
 21
2.19108
 31
0.0
  0
LINE
  8
0
 62
     0
 10
106.735
 20
2.19108
 30
0.0
 11
107.089
 21
1.83692
 31
0.0
  0
LINE
  8
0
 62
     0
 10
107.089
 20
1.83692
 30
0.0
 11
107.534
 21
1.61093
 31
0.0
  0
LINE
  8
0
 62
     0
 10
107.534
 20
1.61093
 30
0.0
 11
108.029
 21
1.53238
 31
0.0
  0
LINE
  8
0
 62
     0
 10
108.029
 20
1.53238
 30
0.0
 11
108.523
 21
1.61093
 31
0.0
  0
LINE
  8
0
 62
     0
 10
108.523
 20
1.61093
 30
0.0
 11
108.97
 21
1.83692
 31
0.0
  0
LINE
  8
0
 62
     0
 10
108.97
 20
1.83692
 30
0.0
 11
109.324
 21
2.19108
 31
0.0
  0
LINE
  8
0
 62
     0
 10
109.324
 20
2.19108
 30
0.0
 11
109.55
 21
2.63756
 31
0.0
  0
LINE
  8
0
 62
     0
 10
109.55
 20
2.63756
 30
0.0
 11
109.629
 21
3.1309
 31
0.0
  0
LINE
  8
0
 62
     0
 10
109.629
 20
3.1309
 30
0.0
 11
109.55
 21
3.6256
 31
0.0
  0
LINE
  8
0
 62
     0
 10
109.55
 20
3.6256
 30
0.0
 11
109.324
 21
4.07211
 31
0.0
  0
LINE
  8
0
 62
     0
 10
109.324
 20
4.07211
 30
0.0
 11
108.97
 21
4.42627
 31
0.0
  0
LINE
  8
0
 62
     0
 10
108.97
 20
4.42627
 30
0.0
 11
108.523
 21
4.65363
 31
0.0
  0
LINE
  8
0
 62
     0
 10
108.523
 20
4.65363
 30
0.0
 11
108.029
 21
4.73082
 31
0.0
  0
LINE
  8
0
 62
     0
 10
108.029
 20
4.73082
 30
0.0
 11
107.534
 21
4.65363
 31
0.0
  0
LINE
  8
0
 62
     0
 10
212.467
 20
4.65363
 30
0.0
 11
212.021
 21
4.42627
 31
0.0
  0
LINE
  8
0
 62
     0
 10
212.021
 20
4.42627
 30
0.0
 11
211.668
 21
4.07211
 31
0.0
  0
LINE
  8
0
 62
     0
 10
211.668
 20
4.07211
 30
0.0
 11
211.441
 21
3.6256
 31
0.0
  0
LINE
  8
0
 62
     0
 10
211.441
 20
3.6256
 30
0.0
 11
211.362
 21
3.1309
 31
0.0
  0
LINE
  8
0
 62
     0
 10
211.362
 20
3.1309
 30
0.0
 11
211.441
 21
2.63756
 31
0.0
  0
LINE
  8
0
 62
     0
 10
211.441
 20
2.63756
 30
0.0
 11
211.668
 21
2.19108
 31
0.0
  0
LINE
  8
0
 62
     0
 10
211.668
 20
2.19108
 30
0.0
 11
212.021
 21
1.83692
 31
0.0
  0
LINE
  8
0
 62
     0
 10
212.021
 20
1.83692
 30
0.0
 11
212.467
 21
1.61093
 31
0.0
  0
LINE
  8
0
 62
     0
 10
212.467
 20
1.61093
 30
0.0
 11
212.962
 21
1.53238
 31
0.0
  0
LINE
  8
0
 62
     0
 10
212.962
 20
1.53238
 30
0.0
 11
213.457
 21
1.61093
 31
0.0
  0
LINE
  8
0
 62
     0
 10
213.457
 20
1.61093
 30
0.0
 11
213.902
 21
1.83692
 31
0.0
  0
LINE
  8
0
 62
     0
 10
213.902
 20
1.83692
 30
0.0
 11
214.256
 21
2.19108
 31
0.0
  0
LINE
  8
0
 62
     0
 10
214.256
 20
2.19108
 30
0.0
 11
214.485
 21
2.63756
 31
0.0
  0
LINE
  8
0
 62
     0
 10
214.485
 20
2.63756
 30
0.0
 11
214.562
 21
3.1309
 31
0.0
  0
LINE
  8
0
 62
     0
 10
214.562
 20
3.1309
 30
0.0
 11
214.485
 21
3.6256
 31
0.0
  0
LINE
  8
0
 62
     0
 10
214.485
 20
3.6256
 30
0.0
 11
214.256
 21
4.07211
 31
0.0
  0
LINE
  8
0
 62
     0
 10
214.256
 20
4.07211
 30
0.0
 11
213.902
 21
4.42627
 31
0.0
  0
LINE
  8
0
 62
     0
 10
213.902
 20
4.42627
 30
0.0
 11
213.457
 21
4.65363
 31
0.0
  0
LINE
  8
0
 62
     0
 10
213.457
 20
4.65363
 30
0.0
 11
212.962
 21
4.73082
 31
0.0
  0
LINE
  8
0
 62
     0
 10
212.962
 20
4.73082
 30
0.0
 11
212.467
 21
4.65363
 31
0.0
  0
LINE
  8
0
 62
     0
 10
317.402
 20
4.65363
 30
0.0
 11
316.956
 21
4.42627
 31
0.0
  0
LINE
  8
0
 62
     0
 10
316.956
 20
4.42627
 30
0.0
 11
316.601
 21
4.07211
 31
0.0
  0
LINE
  8
0
 62
     0
 10
316.601
 20
4.07211
 30
0.0
 11
316.374
 21
3.6256
 31
0.0
  0
LINE
  8
0
 62
     0
 10
316.374
 20
3.6256
 30
0.0
 11
316.297
 21
3.1309
 31
0.0
  0
LINE
  8
0
 62
     0
 10
316.297
 20
3.1309
 30
0.0
 11
316.374
 21
2.63756
 31
0.0
  0
LINE
  8
0
 62
     0
 10
316.374
 20
2.63756
 30
0.0
 11
316.601
 21
2.19108
 31
0.0
  0
LINE
  8
0
 62
     0
 10
316.601
 20
2.19108
 30
0.0
 11
316.956
 21
1.83692
 31
0.0
  0
LINE
  8
0
 62
     0
 10
316.956
 20
1.83692
 30
0.0
 11
317.402
 21
1.61093
 31
0.0
  0
LINE
  8
0
 62
     0
 10
317.402
 20
1.61093
 30
0.0
 11
317.897
 21
1.53238
 31
0.0
  0
LINE
  8
0
 62
     0
 10
317.897
 20
1.53238
 30
0.0
 11
318.39
 21
1.61093
 31
0.0
  0
LINE
  8
0
 62
     0
 10
318.39
 20
1.61093
 30
0.0
 11
318.837
 21
1.83692
 31
0.0
  0
LINE
  8
0
 62
     0
 10
318.837
 20
1.83692
 30
0.0
 11
319.191
 21
2.19108
 31
0.0
  0
LINE
  8
0
 62
     0
 10
319.191
 20
2.19108
 30
0.0
 11
319.417
 21
2.63756
 31
0.0
  0
LINE
  8
0
 62
     0
 10
319.417
 20
2.63756
 30
0.0
 11
319.497
 21
3.1309
 31
0.0
  0
LINE
  8
0
 62
     0
 10
319.497
 20
3.1309
 30
0.0
 11
319.417
 21
3.6256
 31
0.0
  0
LINE
  8
0
 62
     0
 10
319.417
 20
3.6256
 30
0.0
 11
319.191
 21
4.07211
 31
0.0
  0
LINE
  8
0
 62
     0
 10
319.191
 20
4.07211
 30
0.0
 11
318.837
 21
4.42627
 31
0.0
  0
LINE
  8
0
 62
     0
 10
318.837
 20
4.42627
 30
0.0
 11
318.39
 21
4.65363
 31
0.0
  0
LINE
  8
0
 62
     0
 10
318.39
 20
4.65363
 30
0.0
 11
317.897
 21
4.73082
 31
0.0
  0
LINE
  8
0
 62
     0
 10
317.897
 20
4.73082
 30
0.0
 11
317.402
 21
4.65363
 31
0.0
  0
LINE
  8
0
 62
     0
 10
132.063
 20
24.6586
 30
0.0
 11
132.063
 21
19.9567
 31
0.0
  0
LINE
  8
0
 62
     0
 10
132.063
 20
19.9567
 30
0.0
 11
92.4387
 21
19.9567
 31
0.0
  0
LINE
  8
0
 62
     0
 10
92.4387
 20
19.9567
 30
0.0
 11
92.4387
 21
23.1883
 31
0.0
  0
LINE
  8
0
 62
     0
 10
92.4387
 20
23.1883
 30
0.0
 11
90.7136
 21
23.1883
 31
0.0
  0
LINE
  8
0
 62
     0
 10
90.7136
 20
23.1883
 30
0.0
 11
90.7136
 21
24.1088
 31
0.0
  0
LINE
  8
0
 62
     0
 10
90.7136
 20
24.1088
 30
0.0
 11
87.413
 21
24.1088
 31
0.0
  0
LINE
  8
0
 62
     0
 10
87.413
 20
24.1088
 30
0.0
 11
87.413
 21
23.1883
 31
0.0
  0
LINE
  8
0
 62
     0
 10
87.413
 20
23.1883
 30
0.0
 11
85.689
 21
23.1883
 31
0.0
  0
LINE
  8
0
 62
     0
 10
85.689
 20
23.1883
 30
0.0
 11
85.689
 21
19.9567
 31
0.0
  0
LINE
  8
0
 62
     0
 10
85.689
 20
19.9567
 30
0.0
 11
84.8639
 21
19.9567
 31
0.0
  0
LINE
  8
0
 62
     0
 10
84.8639
 20
19.9567
 30
0.0
 11
84.8639
 21
17.1579
 31
0.0
  0
LINE
  8
0
 62
     0
 10
84.8639
 20
17.1579
 30
0.0
 11
85.689
 21
17.1579
 31
0.0
  0
LINE
  8
0
 62
     0
 10
85.689
 20
17.1579
 30
0.0
 11
85.689
 21
10.8879
 31
0.0
  0
LINE
  8
0
 62
     0
 10
85.689
 20
10.8879
 30
0.0
 11
87.413
 21
10.8879
 31
0.0
  0
LINE
  8
0
 62
     0
 10
87.413
 20
10.8879
 30
0.0
 11
87.413
 21
9.90808
 31
0.0
  0
LINE
  8
0
 62
     0
 10
87.413
 20
9.90808
 30
0.0
 11
90.7136
 21
9.90808
 31
0.0
  0
LINE
  8
0
 62
     0
 10
90.7136
 20
9.90808
 30
0.0
 11
90.7136
 21
10.8879
 31
0.0
  0
LINE
  8
0
 62
     0
 10
90.7136
 20
10.8879
 30
0.0
 11
92.4387
 21
10.8879
 31
0.0
  0
LINE
  8
0
 62
     0
 10
92.4387
 20
10.8879
 30
0.0
 11
92.4387
 21
15.3583
 31
0.0
  0
LINE
  8
0
 62
     0
 10
92.4387
 20
15.3583
 30
0.0
 11
132.063
 21
15.3583
 31
0.0
  0
LINE
  8
0
 62
     0
 10
132.063
 20
15.3583
 30
0.0
 11
132.063
 21
10.6577
 31
0.0
  0
LINE
  8
0
 62
     0
 10
132.063
 20
10.6577
 30
0.0
 11
146.064
 21
10.6577
 31
0.0
  0
LINE
  8
0
 62
     0
 10
146.064
 20
10.6577
 30
0.0
 11
146.064
 21
15.3583
 31
0.0
  0
LINE
  8
0
 62
     0
 10
146.064
 20
15.3583
 30
0.0
 11
185.688
 21
15.3583
 31
0.0
  0
LINE
  8
0
 62
     0
 10
185.688
 20
15.3583
 30
0.0
 11
185.688
 21
10.8879
 31
0.0
  0
LINE
  8
0
 62
     0
 10
185.688
 20
10.8879
 30
0.0
 11
187.413
 21
10.8879
 31
0.0
  0
LINE
  8
0
 62
     0
 10
187.413
 20
10.8879
 30
0.0
 11
187.413
 21
9.90808
 31
0.0
  0
LINE
  8
0
 62
     0
 10
187.413
 20
9.90808
 30
0.0
 11
190.713
 21
9.90808
 31
0.0
  0
LINE
  8
0
 62
     0
 10
190.713
 20
9.90808
 30
0.0
 11
190.713
 21
10.8879
 31
0.0
  0
LINE
  8
0
 62
     0
 10
190.713
 20
10.8879
 30
0.0
 11
192.439
 21
10.8879
 31
0.0
  0
LINE
  8
0
 62
     0
 10
192.439
 20
10.8879
 30
0.0
 11
192.439
 21
17.1579
 31
0.0
  0
LINE
  8
0
 62
     0
 10
192.439
 20
17.1579
 30
0.0
 11
193.263
 21
17.1579
 31
0.0
  0
LINE
  8
0
 62
     0
 10
193.263
 20
17.1579
 30
0.0
 11
193.263
 21
19.9567
 31
0.0
  0
LINE
  8
0
 62
     0
 10
193.263
 20
19.9567
 30
0.0
 11
192.439
 21
19.9567
 31
0.0
  0
LINE
  8
0
 62
     0
 10
192.439
 20
19.9567
 30
0.0
 11
192.439
 21
23.1883
 31
0.0
  0
LINE
  8
0
 62
     0
 10
192.439
 20
23.1883
 30
0.0
 11
190.713
 21
23.1883
 31
0.0
  0
LINE
  8
0
 62
     0
 10
190.713
 20
23.1883
 30
0.0
 11
190.713
 21
24.1088
 31
0.0
  0
LINE
  8
0
 62
     0
 10
190.713
 20
24.1088
 30
0.0
 11
187.413
 21
24.1088
 31
0.0
  0
LINE
  8
0
 62
     0
 10
187.413
 20
24.1088
 30
0.0
 11
187.413
 21
23.1883
 31
0.0
  0
LINE
  8
0
 62
     0
 10
187.413
 20
23.1883
 30
0.0
 11
185.688
 21
23.1883
 31
0.0
  0
LINE
  8
0
 62
     0
 10
185.688
 20
23.1883
 30
0.0
 11
185.688
 21
19.9567
 31
0.0
  0
LINE
  8
0
 62
     0
 10
185.688
 20
19.9567
 30
0.0
 11
146.064
 21
19.9567
 31
0.0
  0
LINE
  8
0
 62
     0
 10
146.064
 20
19.9567
 30
0.0
 11
146.064
 21
24.6586
 31
0.0
  0
LINE
  8
0
 62
     0
 10
146.064
 20
24.6586
 30
0.0
 11
132.063
 21
24.6586
 31
0.0
  0
LINE
  8
0
 62
     0
 10
296.37
 20
24.6586
 30
0.0
 11
310.37
 21
24.6586
 31
0.0
  0
LINE
  8
0
 62
     0
 10
310.37
 20
24.6586
 30
0.0
 11
310.37
 21
10.6577
 31
0.0
  0
LINE
  8
0
 62
     0
 10
310.37
 20
10.6577
 30
0.0
 11
296.37
 21
10.6577
 31
0.0
  0
LINE
  8
0
 62
     0
 10
296.37
 20
10.6577
 30
0.0
 11
296.37
 21
24.6586
 31
0.0
  0
LINE
  8
0
 62
     0
 10
277.32
 20
24.6586
 30
0.0
 11
291.32
 21
24.6586
 31
0.0
  0
LINE
  8
0
 62
     0
 10
291.32
 20
24.6586
 30
0.0
 11
291.32
 21
10.6577
 31
0.0
  0
LINE
  8
0
 62
     0
 10
291.32
 20
10.6577
 30
0.0
 11
277.32
 21
10.6577
 31
0.0
  0
LINE
  8
0
 62
     0
 10
277.32
 20
10.6577
 30
0.0
 11
277.32
 21
24.6586
 31
0.0
  0
LINE
  8
0
 62
     0
 10
258.27
 20
24.6586
 30
0.0
 11
272.27
 21
24.6586
 31
0.0
  0
LINE
  8
0
 62
     0
 10
272.27
 20
24.6586
 30
0.0
 11
272.27
 21
10.6577
 31
0.0
  0
LINE
  8
0
 62
     0
 10
272.27
 20
10.6577
 30
0.0
 11
258.27
 21
10.6577
 31
0.0
  0
LINE
  8
0
 62
     0
 10
258.27
 20
10.6577
 30
0.0
 11
258.27
 21
24.6586
 31
0.0
  0
LINE
  8
0
 62
     0
 10
239.22
 20
24.6586
 30
0.0
 11
253.22
 21
24.6586
 31
0.0
  0
LINE
  8
0
 62
     0
 10
253.22
 20
24.6586
 30
0.0
 11
253.22
 21
10.6577
 31
0.0
  0
LINE
  8
0
 62
     0
 10
253.22
 20
10.6577
 30
0.0
 11
239.22
 21
10.6577
 31
0.0
  0
LINE
  8
0
 62
     0
 10
239.22
 20
10.6577
 30
0.0
 11
239.22
 21
24.6586
 31
0.0
  0
LINE
  8
0
 62
     0
 10
220.17
 20
24.6586
 30
0.0
 11
234.17
 21
24.6586
 31
0.0
  0
LINE
  8
0
 62
     0
 10
234.17
 20
24.6586
 30
0.0
 11
234.17
 21
10.6577
 31
0.0
  0
LINE
  8
0
 62
     0
 10
234.17
 20
10.6577
 30
0.0
 11
220.17
 21
10.6577
 31
0.0
  0
LINE
  8
0
 62
     0
 10
220.17
 20
10.6577
 30
0.0
 11
220.17
 21
24.6586
 31
0.0
  0
LINE
  8
0
 62
     0
 10
201.12
 20
24.6586
 30
0.0
 11
215.12
 21
24.6586
 31
0.0
  0
LINE
  8
0
 62
     0
 10
215.12
 20
24.6586
 30
0.0
 11
215.12
 21
10.6577
 31
0.0
  0
LINE
  8
0
 62
     0
 10
215.12
 20
10.6577
 30
0.0
 11
201.12
 21
10.6577
 31
0.0
  0
LINE
  8
0
 62
     0
 10
201.12
 20
10.6577
 30
0.0
 11
201.12
 21
24.6586
 31
0.0
  0
LINE
  8
0
 62
     0
 10
60.6266
 20
24.6586
 30
0.0
 11
74.6263
 21
24.6586
 31
0.0
  0
LINE
  8
0
 62
     0
 10
74.6263
 20
24.6586
 30
0.0
 11
74.6263
 21
10.6577
 31
0.0
  0
LINE
  8
0
 62
     0
 10
74.6263
 20
10.6577
 30
0.0
 11
60.6266
 21
10.6577
 31
0.0
  0
LINE
  8
0
 62
     0
 10
60.6266
 20
10.6577
 30
0.0
 11
60.6266
 21
24.6586
 31
0.0
  0
LINE
  8
0
 62
     0
 10
36.8131
 20
24.6586
 30
0.0
 11
50.8138
 21
24.6586
 31
0.0
  0
LINE
  8
0
 62
     0
 10
50.8138
 20
24.6586
 30
0.0
 11
50.8138
 21
10.6577
 31
0.0
  0
LINE
  8
0
 62
     0
 10
50.8138
 20
10.6577
 30
0.0
 11
36.8131
 21
10.6577
 31
0.0
  0
LINE
  8
0
 62
     0
 10
36.8131
 20
10.6577
 30
0.0
 11
36.8131
 21
24.6586
 31
0.0
  0
LINE
  8
0
 62
     0
 10
13.0018
 20
24.6586
 30
0.0
 11
27.0013
 21
24.6586
 31
0.0
  0
LINE
  8
0
 62
     0
 10
27.0013
 20
24.6586
 30
0.0
 11
27.0013
 21
10.6577
 31
0.0
  0
LINE
  8
0
 62
     0
 10
27.0013
 20
10.6577
 30
0.0
 11
13.0018
 21
10.6577
 31
0.0
  0
LINE
  8
0
 62
     0
 10
13.0018
 20
10.6577
 30
0.0
 11
13.0018
 21
24.6586
 31
0.0
  0
LINE
  8
0
 62
     0
 10
22.5268
 20
43.7074
 30
0.0
 11
22.5268
 21
39.0066
 31
0.0
  0
LINE
  8
0
 62
     0
 10
22.5268
 20
39.0066
 30
0.0
 11
21.0013
 21
39.0066
 31
0.0
  0
LINE
  8
0
 62
     0
 10
21.0013
 20
39.0066
 30
0.0
 11
21.0013
 21
42.237
 31
0.0
  0
LINE
  8
0
 62
     0
 10
21.0013
 20
42.237
 30
0.0
 11
19.276
 21
42.237
 31
0.0
  0
LINE
  8
0
 62
     0
 10
19.276
 20
42.237
 30
0.0
 11
19.276
 21
43.1588
 31
0.0
  0
LINE
  8
0
 62
     0
 10
19.276
 20
43.1588
 30
0.0
 11
15.977
 21
43.1588
 31
0.0
  0
LINE
  8
0
 62
     0
 10
15.977
 20
43.1588
 30
0.0
 11
15.977
 21
42.237
 31
0.0
  0
LINE
  8
0
 62
     0
 10
15.977
 20
42.237
 30
0.0
 11
14.2517
 21
42.237
 31
0.0
  0
LINE
  8
0
 62
     0
 10
14.2517
 20
42.237
 30
0.0
 11
14.2517
 21
39.0066
 31
0.0
  0
LINE
  8
0
 62
     0
 10
14.2517
 20
39.0066
 30
0.0
 11
13.4262
 21
39.0066
 31
0.0
  0
LINE
  8
0
 62
     0
 10
13.4262
 20
39.0066
 30
0.0
 11
13.4262
 21
36.2081
 31
0.0
  0
LINE
  8
0
 62
     0
 10
13.4262
 20
36.2081
 30
0.0
 11
14.2517
 21
36.2081
 31
0.0
  0
LINE
  8
0
 62
     0
 10
14.2517
 20
36.2081
 30
0.0
 11
14.2517
 21
29.9379
 31
0.0
  0
LINE
  8
0
 62
     0
 10
14.2517
 20
29.9379
 30
0.0
 11
15.977
 21
29.9379
 31
0.0
  0
LINE
  8
0
 62
     0
 10
15.977
 20
29.9379
 30
0.0
 11
15.977
 21
28.9567
 31
0.0
  0
LINE
  8
0
 62
     0
 10
15.977
 20
28.9567
 30
0.0
 11
19.276
 21
28.9567
 31
0.0
  0
LINE
  8
0
 62
     0
 10
19.276
 20
28.9567
 30
0.0
 11
19.276
 21
29.9379
 31
0.0
  0
LINE
  8
0
 62
     0
 10
19.276
 20
29.9379
 30
0.0
 11
21.0013
 21
29.9379
 31
0.0
  0
LINE
  8
0
 62
     0
 10
21.0013
 20
29.9379
 30
0.0
 11
21.0013
 21
34.4083
 31
0.0
  0
LINE
  8
0
 62
     0
 10
21.0013
 20
34.4083
 30
0.0
 11
22.5268
 21
34.4083
 31
0.0
  0
LINE
  8
0
 62
     0
 10
22.5268
 20
34.4083
 30
0.0
 11
22.5268
 21
29.7077
 31
0.0
  0
LINE
  8
0
 62
     0
 10
22.5268
 20
29.7077
 30
0.0
 11
36.5263
 21
29.7077
 31
0.0
  0
LINE
  8
0
 62
     0
 10
36.5263
 20
29.7077
 30
0.0
 11
36.5263
 21
34.4083
 31
0.0
  0
LINE
  8
0
 62
     0
 10
36.5263
 20
34.4083
 30
0.0
 11
38.0517
 21
34.4083
 31
0.0
  0
LINE
  8
0
 62
     0
 10
38.0517
 20
34.4083
 30
0.0
 11
38.0517
 21
29.9379
 31
0.0
  0
LINE
  8
0
 62
     0
 10
38.0517
 20
29.9379
 30
0.0
 11
39.7771
 21
29.9379
 31
0.0
  0
LINE
  8
0
 62
     0
 10
39.7771
 20
29.9379
 30
0.0
 11
39.7771
 21
28.9567
 31
0.0
  0
LINE
  8
0
 62
     0
 10
39.7771
 20
28.9567
 30
0.0
 11
43.0759
 21
28.9567
 31
0.0
  0
LINE
  8
0
 62
     0
 10
43.0759
 20
28.9567
 30
0.0
 11
43.0759
 21
29.9379
 31
0.0
  0
LINE
  8
0
 62
     0
 10
43.0759
 20
29.9379
 30
0.0
 11
44.8014
 21
29.9379
 31
0.0
  0
LINE
  8
0
 62
     0
 10
44.8014
 20
29.9379
 30
0.0
 11
44.8014
 21
36.2081
 31
0.0
  0
LINE
  8
0
 62
     0
 10
44.8014
 20
36.2081
 30
0.0
 11
45.6269
 21
36.2081
 31
0.0
  0
LINE
  8
0
 62
     0
 10
45.6269
 20
36.2081
 30
0.0
 11
45.6269
 21
39.0066
 31
0.0
  0
LINE
  8
0
 62
     0
 10
45.6269
 20
39.0066
 30
0.0
 11
44.8014
 21
39.0066
 31
0.0
  0
LINE
  8
0
 62
     0
 10
44.8014
 20
39.0066
 30
0.0
 11
44.8014
 21
42.237
 31
0.0
  0
LINE
  8
0
 62
     0
 10
44.8014
 20
42.237
 30
0.0
 11
43.0759
 21
42.237
 31
0.0
  0
LINE
  8
0
 62
     0
 10
43.0759
 20
42.237
 30
0.0
 11
43.0759
 21
43.1588
 31
0.0
  0
LINE
  8
0
 62
     0
 10
43.0759
 20
43.1588
 30
0.0
 11
39.7771
 21
43.1588
 31
0.0
  0
LINE
  8
0
 62
     0
 10
39.7771
 20
43.1588
 30
0.0
 11
39.7771
 21
42.237
 31
0.0
  0
LINE
  8
0
 62
     0
 10
39.7771
 20
42.237
 30
0.0
 11
38.0517
 21
42.237
 31
0.0
  0
LINE
  8
0
 62
     0
 10
38.0517
 20
42.237
 30
0.0
 11
38.0517
 21
39.0066
 31
0.0
  0
LINE
  8
0
 62
     0
 10
38.0517
 20
39.0066
 30
0.0
 11
36.5263
 21
39.0066
 31
0.0
  0
LINE
  8
0
 62
     0
 10
36.5263
 20
39.0066
 30
0.0
 11
36.5263
 21
43.7074
 31
0.0
  0
LINE
  8
0
 62
     0
 10
36.5263
 20
43.7074
 30
0.0
 11
22.5268
 21
43.7074
 31
0.0
  0
LINE
  8
0
 62
     0
 10
296.37
 20
43.7074
 30
0.0
 11
310.37
 21
43.7074
 31
0.0
  0
LINE
  8
0
 62
     0
 10
310.37
 20
43.7074
 30
0.0
 11
310.37
 21
29.7077
 31
0.0
  0
LINE
  8
0
 62
     0
 10
310.37
 20
29.7077
 30
0.0
 11
296.37
 21
29.7077
 31
0.0
  0
LINE
  8
0
 62
     0
 10
296.37
 20
29.7077
 30
0.0
 11
296.37
 21
43.7074
 31
0.0
  0
LINE
  8
0
 62
     0
 10
277.32
 20
43.7074
 30
0.0
 11
291.32
 21
43.7074
 31
0.0
  0
LINE
  8
0
 62
     0
 10
291.32
 20
43.7074
 30
0.0
 11
291.32
 21
29.7077
 31
0.0
  0
LINE
  8
0
 62
     0
 10
291.32
 20
29.7077
 30
0.0
 11
277.32
 21
29.7077
 31
0.0
  0
LINE
  8
0
 62
     0
 10
277.32
 20
29.7077
 30
0.0
 11
277.32
 21
43.7074
 31
0.0
  0
LINE
  8
0
 62
     0
 10
251.127
 20
43.7074
 30
0.0
 11
265.126
 21
43.7074
 31
0.0
  0
LINE
  8
0
 62
     0
 10
265.126
 20
43.7074
 30
0.0
 11
265.126
 21
29.7077
 31
0.0
  0
LINE
  8
0
 62
     0
 10
265.126
 20
29.7077
 30
0.0
 11
251.127
 21
29.7077
 31
0.0
  0
LINE
  8
0
 62
     0
 10
251.127
 20
29.7077
 30
0.0
 11
251.127
 21
43.7074
 31
0.0
  0
LINE
  8
0
 62
     0
 10
224.933
 20
43.7074
 30
0.0
 11
238.933
 21
43.7074
 31
0.0
  0
LINE
  8
0
 62
     0
 10
238.933
 20
43.7074
 30
0.0
 11
238.933
 21
29.7077
 31
0.0
  0
LINE
  8
0
 62
     0
 10
238.933
 20
29.7077
 30
0.0
 11
224.933
 21
29.7077
 31
0.0
  0
LINE
  8
0
 62
     0
 10
224.933
 20
29.7077
 30
0.0
 11
224.933
 21
43.7074
 31
0.0
  0
LINE
  8
0
 62
     0
 10
205.883
 20
43.7074
 30
0.0
 11
219.883
 21
43.7074
 31
0.0
  0
LINE
  8
0
 62
     0
 10
219.883
 20
43.7074
 30
0.0
 11
219.883
 21
29.7077
 31
0.0
  0
LINE
  8
0
 62
     0
 10
219.883
 20
29.7077
 30
0.0
 11
205.883
 21
29.7077
 31
0.0
  0
LINE
  8
0
 62
     0
 10
205.883
 20
29.7077
 30
0.0
 11
205.883
 21
43.7074
 31
0.0
  0
LINE
  8
0
 62
     0
 10
186.833
 20
43.7074
 30
0.0
 11
200.833
 21
43.7074
 31
0.0
  0
LINE
  8
0
 62
     0
 10
200.833
 20
43.7074
 30
0.0
 11
200.833
 21
29.7077
 31
0.0
  0
LINE
  8
0
 62
     0
 10
200.833
 20
29.7077
 30
0.0
 11
186.833
 21
29.7077
 31
0.0
  0
LINE
  8
0
 62
     0
 10
186.833
 20
29.7077
 30
0.0
 11
186.833
 21
43.7074
 31
0.0
  0
LINE
  8
0
 62
     0
 10
167.783
 20
43.7074
 30
0.0
 11
181.783
 21
43.7074
 31
0.0
  0
LINE
  8
0
 62
     0
 10
181.783
 20
43.7074
 30
0.0
 11
181.783
 21
29.7077
 31
0.0
  0
LINE
  8
0
 62
     0
 10
181.783
 20
29.7077
 30
0.0
 11
167.783
 21
29.7077
 31
0.0
  0
LINE
  8
0
 62
     0
 10
167.783
 20
29.7077
 30
0.0
 11
167.783
 21
43.7074
 31
0.0
  0
LINE
  8
0
 62
     0
 10
148.733
 20
43.7074
 30
0.0
 11
162.733
 21
43.7074
 31
0.0
  0
LINE
  8
0
 62
     0
 10
162.733
 20
43.7074
 30
0.0
 11
162.733
 21
29.7077
 31
0.0
  0
LINE
  8
0
 62
     0
 10
162.733
 20
29.7077
 30
0.0
 11
148.733
 21
29.7077
 31
0.0
  0
LINE
  8
0
 62
     0
 10
148.733
 20
29.7077
 30
0.0
 11
148.733
 21
43.7074
 31
0.0
  0
LINE
  8
0
 62
     0
 10
129.683
 20
43.7074
 30
0.0
 11
143.683
 21
43.7074
 31
0.0
  0
LINE
  8
0
 62
     0
 10
143.683
 20
43.7074
 30
0.0
 11
143.683
 21
29.7077
 31
0.0
  0
LINE
  8
0
 62
     0
 10
143.683
 20
29.7077
 30
0.0
 11
129.683
 21
29.7077
 31
0.0
  0
LINE
  8
0
 62
     0
 10
129.683
 20
29.7077
 30
0.0
 11
129.683
 21
43.7074
 31
0.0
  0
LINE
  8
0
 62
     0
 10
110.633
 20
43.7074
 30
0.0
 11
124.633
 21
43.7074
 31
0.0
  0
LINE
  8
0
 62
     0
 10
124.633
 20
43.7074
 30
0.0
 11
124.633
 21
29.7077
 31
0.0
  0
LINE
  8
0
 62
     0
 10
124.633
 20
29.7077
 30
0.0
 11
110.633
 21
29.7077
 31
0.0
  0
LINE
  8
0
 62
     0
 10
110.633
 20
29.7077
 30
0.0
 11
110.633
 21
43.7074
 31
0.0
  0
LINE
  8
0
 62
     0
 10
91.5829
 20
43.7074
 30
0.0
 11
105.583
 21
43.7074
 31
0.0
  0
LINE
  8
0
 62
     0
 10
105.583
 20
43.7074
 30
0.0
 11
105.583
 21
29.7077
 31
0.0
  0
LINE
  8
0
 62
     0
 10
105.583
 20
29.7077
 30
0.0
 11
91.5829
 21
29.7077
 31
0.0
  0
LINE
  8
0
 62
     0
 10
91.5829
 20
29.7077
 30
0.0
 11
91.5829
 21
43.7074
 31
0.0
  0
LINE
  8
0
 62
     0
 10
72.5329
 20
43.7074
 30
0.0
 11
86.5325
 21
43.7074
 31
0.0
  0
LINE
  8
0
 62
     0
 10
86.5325
 20
43.7074
 30
0.0
 11
86.5325
 21
29.7077
 31
0.0
  0
LINE
  8
0
 62
     0
 10
86.5325
 20
29.7077
 30
0.0
 11
72.5329
 21
29.7077
 31
0.0
  0
LINE
  8
0
 62
     0
 10
72.5329
 20
29.7077
 30
0.0
 11
72.5329
 21
43.7074
 31
0.0
  0
LINE
  8
0
 62
     0
 10
53.4829
 20
43.7074
 30
0.0
 11
67.4825
 21
43.7074
 31
0.0
  0
LINE
  8
0
 62
     0
 10
67.4825
 20
43.7074
 30
0.0
 11
67.4825
 21
29.7077
 31
0.0
  0
LINE
  8
0
 62
     0
 10
67.4825
 20
29.7077
 30
0.0
 11
53.4829
 21
29.7077
 31
0.0
  0
LINE
  8
0
 62
     0
 10
53.4829
 20
29.7077
 30
0.0
 11
53.4829
 21
43.7074
 31
0.0
  0
LINE
  8
0
 62
     0
 10
265.413
 20
62.7574
 30
0.0
 11
265.413
 21
58.0566
 31
0.0
  0
LINE
  8
0
 62
     0
 10
265.413
 20
58.0566
 30
0.0
 11
263.889
 21
58.0566
 31
0.0
  0
LINE
  8
0
 62
     0
 10
263.889
 20
58.0566
 30
0.0
 11
263.889
 21
61.287
 31
0.0
  0
LINE
  8
0
 62
     0
 10
263.889
 20
61.287
 30
0.0
 11
262.164
 21
61.287
 31
0.0
  0
LINE
  8
0
 62
     0
 10
262.164
 20
61.287
 30
0.0
 11
262.164
 21
62.2074
 31
0.0
  0
LINE
  8
0
 62
     0
 10
262.164
 20
62.2074
 30
0.0
 11
258.863
 21
62.2074
 31
0.0
  0
LINE
  8
0
 62
     0
 10
258.863
 20
62.2074
 30
0.0
 11
258.863
 21
61.287
 31
0.0
  0
LINE
  8
0
 62
     0
 10
258.863
 20
61.287
 30
0.0
 11
257.139
 21
61.287
 31
0.0
  0
LINE
  8
0
 62
     0
 10
257.139
 20
61.287
 30
0.0
 11
257.139
 21
58.0566
 31
0.0
  0
LINE
  8
0
 62
     0
 10
257.139
 20
58.0566
 30
0.0
 11
256.314
 21
58.0566
 31
0.0
  0
LINE
  8
0
 62
     0
 10
256.314
 20
58.0566
 30
0.0
 11
256.314
 21
55.2581
 31
0.0
  0
LINE
  8
0
 62
     0
 10
256.314
 20
55.2581
 30
0.0
 11
257.139
 21
55.2581
 31
0.0
  0
LINE
  8
0
 62
     0
 10
257.139
 20
55.2581
 30
0.0
 11
257.139
 21
48.9878
 31
0.0
  0
LINE
  8
0
 62
     0
 10
257.139
 20
48.9878
 30
0.0
 11
258.863
 21
48.9878
 31
0.0
  0
LINE
  8
0
 62
     0
 10
258.863
 20
48.9878
 30
0.0
 11
258.863
 21
48.0067
 31
0.0
  0
LINE
  8
0
 62
     0
 10
258.863
 20
48.0067
 30
0.0
 11
262.164
 21
48.0067
 31
0.0
  0
LINE
  8
0
 62
     0
 10
262.164
 20
48.0067
 30
0.0
 11
262.164
 21
48.9878
 31
0.0
  0
LINE
  8
0
 62
     0
 10
262.164
 20
48.9878
 30
0.0
 11
263.889
 21
48.9878
 31
0.0
  0
LINE
  8
0
 62
     0
 10
263.889
 20
48.9878
 30
0.0
 11
263.889
 21
53.4568
 31
0.0
  0
LINE
  8
0
 62
     0
 10
263.889
 20
53.4568
 30
0.0
 11
265.413
 21
53.4568
 31
0.0
  0
LINE
  8
0
 62
     0
 10
265.413
 20
53.4568
 30
0.0
 11
265.413
 21
48.7578
 31
0.0
  0
LINE
  8
0
 62
     0
 10
265.413
 20
48.7578
 30
0.0
 11
279.414
 21
48.7578
 31
0.0
  0
LINE
  8
0
 62
     0
 10
279.414
 20
48.7578
 30
0.0
 11
279.414
 21
53.4568
 31
0.0
  0
LINE
  8
0
 62
     0
 10
279.414
 20
53.4568
 30
0.0
 11
280.938
 21
53.4568
 31
0.0
  0
LINE
  8
0
 62
     0
 10
280.938
 20
53.4568
 30
0.0
 11
280.938
 21
48.9878
 31
0.0
  0
LINE
  8
0
 62
     0
 10
280.938
 20
48.9878
 30
0.0
 11
282.663
 21
48.9878
 31
0.0
  0
LINE
  8
0
 62
     0
 10
282.663
 20
48.9878
 30
0.0
 11
282.663
 21
48.0067
 31
0.0
  0
LINE
  8
0
 62
     0
 10
282.663
 20
48.0067
 30
0.0
 11
285.963
 21
48.0067
 31
0.0
  0
LINE
  8
0
 62
     0
 10
285.963
 20
48.0067
 30
0.0
 11
285.963
 21
48.9878
 31
0.0
  0
LINE
  8
0
 62
     0
 10
285.963
 20
48.9878
 30
0.0
 11
287.689
 21
48.9878
 31
0.0
  0
LINE
  8
0
 62
     0
 10
287.689
 20
48.9878
 30
0.0
 11
287.689
 21
55.2581
 31
0.0
  0
LINE
  8
0
 62
     0
 10
287.689
 20
55.2581
 30
0.0
 11
288.513
 21
55.2581
 31
0.0
  0
LINE
  8
0
 62
     0
 10
288.513
 20
55.2581
 30
0.0
 11
288.513
 21
58.0566
 31
0.0
  0
LINE
  8
0
 62
     0
 10
288.513
 20
58.0566
 30
0.0
 11
287.689
 21
58.0566
 31
0.0
  0
LINE
  8
0
 62
     0
 10
287.689
 20
58.0566
 30
0.0
 11
287.689
 21
61.287
 31
0.0
  0
LINE
  8
0
 62
     0
 10
287.689
 20
61.287
 30
0.0
 11
285.963
 21
61.287
 31
0.0
  0
LINE
  8
0
 62
     0
 10
285.963
 20
61.287
 30
0.0
 11
285.963
 21
62.2074
 31
0.0
  0
LINE
  8
0
 62
     0
 10
285.963
 20
62.2074
 30
0.0
 11
282.663
 21
62.2074
 31
0.0
  0
LINE
  8
0
 62
     0
 10
282.663
 20
62.2074
 30
0.0
 11
282.663
 21
61.287
 31
0.0
  0
LINE
  8
0
 62
     0
 10
282.663
 20
61.287
 30
0.0
 11
280.938
 21
61.287
 31
0.0
  0
LINE
  8
0
 62
     0
 10
280.938
 20
61.287
 30
0.0
 11
280.938
 21
58.0566
 31
0.0
  0
LINE
  8
0
 62
     0
 10
280.938
 20
58.0566
 30
0.0
 11
279.414
 21
58.0566
 31
0.0
  0
LINE
  8
0
 62
     0
 10
279.414
 20
58.0566
 30
0.0
 11
279.414
 21
62.7574
 31
0.0
  0
LINE
  8
0
 62
     0
 10
279.414
 20
62.7574
 30
0.0
 11
265.413
 21
62.7574
 31
0.0
  0
LINE
  8
0
 62
     0
 10
296.37
 20
62.7574
 30
0.0
 11
310.37
 21
62.7574
 31
0.0
  0
LINE
  8
0
 62
     0
 10
310.37
 20
62.7574
 30
0.0
 11
310.37
 21
48.7578
 31
0.0
  0
LINE
  8
0
 62
     0
 10
310.37
 20
48.7578
 30
0.0
 11
296.37
 21
48.7578
 31
0.0
  0
LINE
  8
0
 62
     0
 10
296.37
 20
48.7578
 30
0.0
 11
296.37
 21
62.7574
 31
0.0
  0
LINE
  8
0
 62
     0
 10
234.458
 20
62.7574
 30
0.0
 11
248.458
 21
62.7574
 31
0.0
  0
LINE
  8
0
 62
     0
 10
248.458
 20
62.7574
 30
0.0
 11
248.458
 21
48.7578
 31
0.0
  0
LINE
  8
0
 62
     0
 10
248.458
 20
48.7578
 30
0.0
 11
234.458
 21
48.7578
 31
0.0
  0
LINE
  8
0
 62
     0
 10
234.458
 20
48.7578
 30
0.0
 11
234.458
 21
62.7574
 31
0.0
  0
LINE
  8
0
 62
     0
 10
215.408
 20
62.7574
 30
0.0
 11
229.408
 21
62.7574
 31
0.0
  0
LINE
  8
0
 62
     0
 10
229.408
 20
62.7574
 30
0.0
 11
229.408
 21
48.7578
 31
0.0
  0
LINE
  8
0
 62
     0
 10
229.408
 20
48.7578
 30
0.0
 11
215.408
 21
48.7578
 31
0.0
  0
LINE
  8
0
 62
     0
 10
215.408
 20
48.7578
 30
0.0
 11
215.408
 21
62.7574
 31
0.0
  0
LINE
  8
0
 62
     0
 10
196.358
 20
62.7574
 30
0.0
 11
210.358
 21
62.7574
 31
0.0
  0
LINE
  8
0
 62
     0
 10
210.358
 20
62.7574
 30
0.0
 11
210.358
 21
48.7578
 31
0.0
  0
LINE
  8
0
 62
     0
 10
210.358
 20
48.7578
 30
0.0
 11
196.358
 21
48.7578
 31
0.0
  0
LINE
  8
0
 62
     0
 10
196.358
 20
48.7578
 30
0.0
 11
196.358
 21
62.7574
 31
0.0
  0
LINE
  8
0
 62
     0
 10
177.308
 20
62.7574
 30
0.0
 11
191.308
 21
62.7574
 31
0.0
  0
LINE
  8
0
 62
     0
 10
191.308
 20
62.7574
 30
0.0
 11
191.308
 21
48.7578
 31
0.0
  0
LINE
  8
0
 62
     0
 10
191.308
 20
48.7578
 30
0.0
 11
177.308
 21
48.7578
 31
0.0
  0
LINE
  8
0
 62
     0
 10
177.308
 20
48.7578
 30
0.0
 11
177.308
 21
62.7574
 31
0.0
  0
LINE
  8
0
 62
     0
 10
158.258
 20
62.7574
 30
0.0
 11
172.258
 21
62.7574
 31
0.0
  0
LINE
  8
0
 62
     0
 10
172.258
 20
62.7574
 30
0.0
 11
172.258
 21
48.7578
 31
0.0
  0
LINE
  8
0
 62
     0
 10
172.258
 20
48.7578
 30
0.0
 11
158.258
 21
48.7578
 31
0.0
  0
LINE
  8
0
 62
     0
 10
158.258
 20
48.7578
 30
0.0
 11
158.258
 21
62.7574
 31
0.0
  0
LINE
  8
0
 62
     0
 10
139.208
 20
62.7574
 30
0.0
 11
153.208
 21
62.7574
 31
0.0
  0
LINE
  8
0
 62
     0
 10
153.208
 20
62.7574
 30
0.0
 11
153.208
 21
48.7578
 31
0.0
  0
LINE
  8
0
 62
     0
 10
153.208
 20
48.7578
 30
0.0
 11
139.208
 21
48.7578
 31
0.0
  0
LINE
  8
0
 62
     0
 10
139.208
 20
48.7578
 30
0.0
 11
139.208
 21
62.7574
 31
0.0
  0
LINE
  8
0
 62
     0
 10
120.158
 20
62.7574
 30
0.0
 11
134.158
 21
62.7574
 31
0.0
  0
LINE
  8
0
 62
     0
 10
134.158
 20
62.7574
 30
0.0
 11
134.158
 21
48.7578
 31
0.0
  0
LINE
  8
0
 62
     0
 10
134.158
 20
48.7578
 30
0.0
 11
120.158
 21
48.7578
 31
0.0
  0
LINE
  8
0
 62
     0
 10
120.158
 20
48.7578
 30
0.0
 11
120.158
 21
62.7574
 31
0.0
  0
LINE
  8
0
 62
     0
 10
101.108
 20
62.7574
 30
0.0
 11
115.108
 21
62.7574
 31
0.0
  0
LINE
  8
0
 62
     0
 10
115.108
 20
62.7574
 30
0.0
 11
115.108
 21
48.7578
 31
0.0
  0
LINE
  8
0
 62
     0
 10
115.108
 20
48.7578
 30
0.0
 11
101.108
 21
48.7578
 31
0.0
  0
LINE
  8
0
 62
     0
 10
101.108
 20
48.7578
 30
0.0
 11
101.108
 21
62.7574
 31
0.0
  0
LINE
  8
0
 62
     0
 10
82.0579
 20
62.7574
 30
0.0
 11
96.0575
 21
62.7574
 31
0.0
  0
LINE
  8
0
 62
     0
 10
96.0575
 20
62.7574
 30
0.0
 11
96.0575
 21
48.7578
 31
0.0
  0
LINE
  8
0
 62
     0
 10
96.0575
 20
48.7578
 30
0.0
 11
82.0579
 21
48.7578
 31
0.0
  0
LINE
  8
0
 62
     0
 10
82.0579
 20
48.7578
 30
0.0
 11
82.0579
 21
62.7574
 31
0.0
  0
LINE
  8
0
 62
     0
 10
63.0079
 20
62.7574
 30
0.0
 11
77.0075
 21
62.7574
 31
0.0
  0
LINE
  8
0
 62
     0
 10
77.0075
 20
62.7574
 30
0.0
 11
77.0075
 21
48.7578
 31
0.0
  0
LINE
  8
0
 62
     0
 10
77.0075
 20
48.7578
 30
0.0
 11
63.0079
 21
48.7578
 31
0.0
  0
LINE
  8
0
 62
     0
 10
63.0079
 20
48.7578
 30
0.0
 11
63.0079
 21
62.7574
 31
0.0
  0
LINE
  8
0
 62
     0
 10
43.9579
 20
62.7574
 30
0.0
 11
57.9575
 21
62.7574
 31
0.0
  0
LINE
  8
0
 62
     0
 10
57.9575
 20
62.7574
 30
0.0
 11
57.9575
 21
48.7578
 31
0.0
  0
LINE
  8
0
 62
     0
 10
57.9575
 20
48.7578
 30
0.0
 11
43.9579
 21
48.7578
 31
0.0
  0
LINE
  8
0
 62
     0
 10
43.9579
 20
48.7578
 30
0.0
 11
43.9579
 21
62.7574
 31
0.0
  0
LINE
  8
0
 62
     0
 10
17.7629
 20
62.7574
 30
0.0
 11
31.7638
 21
62.7574
 31
0.0
  0
LINE
  8
0
 62
     0
 10
31.7638
 20
62.7574
 30
0.0
 11
31.7638
 21
48.7578
 31
0.0
  0
LINE
  8
0
 62
     0
 10
31.7638
 20
48.7578
 30
0.0
 11
17.7629
 21
48.7578
 31
0.0
  0
LINE
  8
0
 62
     0
 10
17.7629
 20
48.7578
 30
0.0
 11
17.7629
 21
62.7574
 31
0.0
  0
LINE
  8
0
 62
     0
 10
2.60036
 20
66.8045
 30
0.0
 11
2.15387
 21
66.5759
 31
0.0
  0
LINE
  8
0
 62
     0
 10
2.15387
 20
66.5759
 30
0.0
 11
1.8011
 21
66.2217
 31
0.0
  0
LINE
  8
0
 62
     0
 10
1.8011
 20
66.2217
 30
0.0
 11
1.57372
 21
65.7765
 31
0.0
  0
LINE
  8
0
 62
     0
 10
1.57372
 20
65.7765
 30
0.0
 11
1.49517
 21
65.2819
 31
0.0
  0
LINE
  8
0
 62
     0
 10
1.49517
 20
65.2819
 30
0.0
 11
1.57372
 21
64.7883
 31
0.0
  0
LINE
  8
0
 62
     0
 10
1.57372
 20
64.7883
 30
0.0
 11
1.8011
 21
64.3421
 31
0.0
  0
LINE
  8
0
 62
     0
 10
1.8011
 20
64.3421
 30
0.0
 11
2.15387
 21
63.9879
 31
0.0
  0
LINE
  8
0
 62
     0
 10
2.15387
 20
63.9879
 30
0.0
 11
2.60036
 21
63.7604
 31
0.0
  0
LINE
  8
0
 62
     0
 10
2.60036
 20
63.7604
 30
0.0
 11
3.09507
 21
63.682
 31
0.0
  0
LINE
  8
0
 62
     0
 10
3.09507
 20
63.682
 30
0.0
 11
3.5898
 21
63.7604
 31
0.0
  0
LINE
  8
0
 62
     0
 10
3.5898
 20
63.7604
 30
0.0
 11
4.0349
 21
63.9879
 31
0.0
  0
LINE
  8
0
 62
     0
 10
4.0349
 20
63.9879
 30
0.0
 11
4.38905
 21
64.3421
 31
0.0
  0
LINE
  8
0
 62
     0
 10
4.38905
 20
64.3421
 30
0.0
 11
4.61641
 21
64.7883
 31
0.0
  0
LINE
  8
0
 62
     0
 10
4.61641
 20
64.7883
 30
0.0
 11
4.69498
 21
65.2819
 31
0.0
  0
LINE
  8
0
 62
     0
 10
4.69498
 20
65.2819
 30
0.0
 11
4.61641
 21
65.7765
 31
0.0
  0
LINE
  8
0
 62
     0
 10
4.61641
 20
65.7765
 30
0.0
 11
4.38905
 21
66.2217
 31
0.0
  0
LINE
  8
0
 62
     0
 10
4.38905
 20
66.2217
 30
0.0
 11
4.0349
 21
66.5759
 31
0.0
  0
LINE
  8
0
 62
     0
 10
4.0349
 20
66.5759
 30
0.0
 11
3.5898
 21
66.8045
 31
0.0
  0
LINE
  8
0
 62
     0
 10
3.5898
 20
66.8045
 30
0.0
 11
3.09507
 21
66.8817
 31
0.0
  0
LINE
  8
0
 62
     0
 10
3.09507
 20
66.8817
 30
0.0
 11
2.60036
 21
66.8045
 31
0.0
  0
LINE
  8
0
 62
     0
 10
317.402
 20
66.8045
 30
0.0
 11
316.956
 21
66.5759
 31
0.0
  0
LINE
  8
0
 62
     0
 10
316.956
 20
66.5759
 30
0.0
 11
316.601
 21
66.2217
 31
0.0
  0
LINE
  8
0
 62
     0
 10
316.601
 20
66.2217
 30
0.0
 11
316.374
 21
65.7765
 31
0.0
  0
LINE
  8
0
 62
     0
 10
316.374
 20
65.7765
 30
0.0
 11
316.297
 21
65.2819
 31
0.0
  0
LINE
  8
0
 62
     0
 10
316.297
 20
65.2819
 30
0.0
 11
316.374
 21
64.7883
 31
0.0
  0
LINE
  8
0
 62
     0
 10
316.374
 20
64.7883
 30
0.0
 11
316.601
 21
64.3421
 31
0.0
  0
LINE
  8
0
 62
     0
 10
316.601
 20
64.3421
 30
0.0
 11
316.956
 21
63.9879
 31
0.0
  0
LINE
  8
0
 62
     0
 10
316.956
 20
63.9879
 30
0.0
 11
317.402
 21
63.7604
 31
0.0
  0
LINE
  8
0
 62
     0
 10
317.402
 20
63.7604
 30
0.0
 11
317.897
 21
63.682
 31
0.0
  0
LINE
  8
0
 62
     0
 10
317.897
 20
63.682
 30
0.0
 11
318.39
 21
63.7604
 31
0.0
  0
LINE
  8
0
 62
     0
 10
318.39
 20
63.7604
 30
0.0
 11
318.837
 21
63.9879
 31
0.0
  0
LINE
  8
0
 62
     0
 10
318.837
 20
63.9879
 30
0.0
 11
319.191
 21
64.3421
 31
0.0
  0
LINE
  8
0
 62
     0
 10
319.191
 20
64.3421
 30
0.0
 11
319.417
 21
64.7883
 31
0.0
  0
LINE
  8
0
 62
     0
 10
319.417
 20
64.7883
 30
0.0
 11
319.497
 21
65.2819
 31
0.0
  0
LINE
  8
0
 62
     0
 10
319.497
 20
65.2819
 30
0.0
 11
319.417
 21
65.7765
 31
0.0
  0
LINE
  8
0
 62
     0
 10
319.417
 20
65.7765
 30
0.0
 11
319.191
 21
66.2217
 31
0.0
  0
LINE
  8
0
 62
     0
 10
319.191
 20
66.2217
 30
0.0
 11
318.837
 21
66.5759
 31
0.0
  0
LINE
  8
0
 62
     0
 10
318.837
 20
66.5759
 30
0.0
 11
318.39
 21
66.8045
 31
0.0
  0
LINE
  8
0
 62
     0
 10
318.39
 20
66.8045
 30
0.0
 11
317.897
 21
66.8817
 31
0.0
  0
LINE
  8
0
 62
     0
 10
317.897
 20
66.8817
 30
0.0
 11
317.402
 21
66.8045
 31
0.0
  0
LINE
  8
0
 62
     0
 10
296.37
 20
81.8074
 30
0.0
 11
310.37
 21
81.8074
 31
0.0
  0
LINE
  8
0
 62
     0
 10
310.37
 20
81.8074
 30
0.0
 11
310.37
 21
67.8078
 31
0.0
  0
LINE
  8
0
 62
     0
 10
310.37
 20
67.8078
 30
0.0
 11
296.37
 21
67.8078
 31
0.0
  0
LINE
  8
0
 62
     0
 10
296.37
 20
67.8078
 30
0.0
 11
296.37
 21
81.8074
 31
0.0
  0
LINE
  8
0
 62
     0
 10
272.558
 20
81.8074
 30
0.0
 11
286.558
 21
81.8074
 31
0.0
  0
LINE
  8
0
 62
     0
 10
286.558
 20
81.8074
 30
0.0
 11
286.558
 21
67.8078
 31
0.0
  0
LINE
  8
0
 62
     0
 10
286.558
 20
67.8078
 30
0.0
 11
272.558
 21
67.8078
 31
0.0
  0
LINE
  8
0
 62
     0
 10
272.558
 20
67.8078
 30
0.0
 11
272.558
 21
81.8074
 31
0.0
  0
LINE
  8
0
 62
     0
 10
248.745
 20
81.8074
 30
0.0
 11
262.745
 21
81.8074
 31
0.0
  0
LINE
  8
0
 62
     0
 10
262.745
 20
81.8074
 30
0.0
 11
262.745
 21
67.8078
 31
0.0
  0
LINE
  8
0
 62
     0
 10
262.745
 20
67.8078
 30
0.0
 11
248.745
 21
67.8078
 31
0.0
  0
LINE
  8
0
 62
     0
 10
248.745
 20
67.8078
 30
0.0
 11
248.745
 21
81.8074
 31
0.0
  0
LINE
  8
0
 62
     0
 10
229.695
 20
81.8074
 30
0.0
 11
243.695
 21
81.8074
 31
0.0
  0
LINE
  8
0
 62
     0
 10
243.695
 20
81.8074
 30
0.0
 11
243.695
 21
67.8078
 31
0.0
  0
LINE
  8
0
 62
     0
 10
243.695
 20
67.8078
 30
0.0
 11
229.695
 21
67.8078
 31
0.0
  0
LINE
  8
0
 62
     0
 10
229.695
 20
67.8078
 30
0.0
 11
229.695
 21
81.8074
 31
0.0
  0
LINE
  8
0
 62
     0
 10
210.645
 20
81.8074
 30
0.0
 11
224.645
 21
81.8074
 31
0.0
  0
LINE
  8
0
 62
     0
 10
224.645
 20
81.8074
 30
0.0
 11
224.645
 21
67.8078
 31
0.0
  0
LINE
  8
0
 62
     0
 10
224.645
 20
67.8078
 30
0.0
 11
210.645
 21
67.8078
 31
0.0
  0
LINE
  8
0
 62
     0
 10
210.645
 20
67.8078
 30
0.0
 11
210.645
 21
81.8074
 31
0.0
  0
LINE
  8
0
 62
     0
 10
191.595
 20
81.8074
 30
0.0
 11
205.595
 21
81.8074
 31
0.0
  0
LINE
  8
0
 62
     0
 10
205.595
 20
81.8074
 30
0.0
 11
205.595
 21
67.8078
 31
0.0
  0
LINE
  8
0
 62
     0
 10
205.595
 20
67.8078
 30
0.0
 11
191.595
 21
67.8078
 31
0.0
  0
LINE
  8
0
 62
     0
 10
191.595
 20
67.8078
 30
0.0
 11
191.595
 21
81.8074
 31
0.0
  0
LINE
  8
0
 62
     0
 10
172.545
 20
81.8074
 30
0.0
 11
186.545
 21
81.8074
 31
0.0
  0
LINE
  8
0
 62
     0
 10
186.545
 20
81.8074
 30
0.0
 11
186.545
 21
67.8078
 31
0.0
  0
LINE
  8
0
 62
     0
 10
186.545
 20
67.8078
 30
0.0
 11
172.545
 21
67.8078
 31
0.0
  0
LINE
  8
0
 62
     0
 10
172.545
 20
67.8078
 30
0.0
 11
172.545
 21
81.8074
 31
0.0
  0
LINE
  8
0
 62
     0
 10
153.495
 20
81.8074
 30
0.0
 11
167.495
 21
81.8074
 31
0.0
  0
LINE
  8
0
 62
     0
 10
167.495
 20
81.8074
 30
0.0
 11
167.495
 21
67.8078
 31
0.0
  0
LINE
  8
0
 62
     0
 10
167.495
 20
67.8078
 30
0.0
 11
153.495
 21
67.8078
 31
0.0
  0
LINE
  8
0
 62
     0
 10
153.495
 20
67.8078
 30
0.0
 11
153.495
 21
81.8074
 31
0.0
  0
LINE
  8
0
 62
     0
 10
134.445
 20
81.8074
 30
0.0
 11
148.445
 21
81.8074
 31
0.0
  0
LINE
  8
0
 62
     0
 10
148.445
 20
81.8074
 30
0.0
 11
148.445
 21
67.8078
 31
0.0
  0
LINE
  8
0
 62
     0
 10
148.445
 20
67.8078
 30
0.0
 11
134.445
 21
67.8078
 31
0.0
  0
LINE
  8
0
 62
     0
 10
134.445
 20
67.8078
 30
0.0
 11
134.445
 21
81.8074
 31
0.0
  0
LINE
  8
0
 62
     0
 10
115.395
 20
81.8074
 30
0.0
 11
129.395
 21
81.8074
 31
0.0
  0
LINE
  8
0
 62
     0
 10
129.395
 20
81.8074
 30
0.0
 11
129.395
 21
67.8078
 31
0.0
  0
LINE
  8
0
 62
     0
 10
129.395
 20
67.8078
 30
0.0
 11
115.395
 21
67.8078
 31
0.0
  0
LINE
  8
0
 62
     0
 10
115.395
 20
67.8078
 30
0.0
 11
115.395
 21
81.8074
 31
0.0
  0
LINE
  8
0
 62
     0
 10
96.3454
 20
81.8074
 30
0.0
 11
110.345
 21
81.8074
 31
0.0
  0
LINE
  8
0
 62
     0
 10
110.345
 20
81.8074
 30
0.0
 11
110.345
 21
67.8078
 31
0.0
  0
LINE
  8
0
 62
     0
 10
110.345
 20
67.8078
 30
0.0
 11
96.3454
 21
67.8078
 31
0.0
  0
LINE
  8
0
 62
     0
 10
96.3454
 20
67.8078
 30
0.0
 11
96.3454
 21
81.8074
 31
0.0
  0
LINE
  8
0
 62
     0
 10
77.2954
 20
81.8074
 30
0.0
 11
91.295
 21
81.8074
 31
0.0
  0
LINE
  8
0
 62
     0
 10
91.295
 20
81.8074
 30
0.0
 11
91.295
 21
67.8078
 31
0.0
  0
LINE
  8
0
 62
     0
 10
91.295
 20
67.8078
 30
0.0
 11
77.2954
 21
67.8078
 31
0.0
  0
LINE
  8
0
 62
     0
 10
77.2954
 20
67.8078
 30
0.0
 11
77.2954
 21
81.8074
 31
0.0
  0
LINE
  8
0
 62
     0
 10
58.2454
 20
81.8074
 30
0.0
 11
72.245
 21
81.8074
 31
0.0
  0
LINE
  8
0
 62
     0
 10
72.245
 20
81.8074
 30
0.0
 11
72.245
 21
67.8078
 31
0.0
  0
LINE
  8
0
 62
     0
 10
72.245
 20
67.8078
 30
0.0
 11
58.2454
 21
67.8078
 31
0.0
  0
LINE
  8
0
 62
     0
 10
58.2454
 20
67.8078
 30
0.0
 11
58.2454
 21
81.8074
 31
0.0
  0
LINE
  8
0
 62
     0
 10
39.1954
 20
81.8074
 30
0.0
 11
53.195
 21
81.8074
 31
0.0
  0
LINE
  8
0
 62
     0
 10
53.195
 20
81.8074
 30
0.0
 11
53.195
 21
67.8078
 31
0.0
  0
LINE
  8
0
 62
     0
 10
53.195
 20
67.8078
 30
0.0
 11
39.1954
 21
67.8078
 31
0.0
  0
LINE
  8
0
 62
     0
 10
39.1954
 20
67.8078
 30
0.0
 11
39.1954
 21
81.8074
 31
0.0
  0
LINE
  8
0
 62
     0
 10
15.3831
 20
81.8074
 30
0.0
 11
29.3825
 21
81.8074
 31
0.0
  0
LINE
  8
0
 62
     0
 10
29.3825
 20
81.8074
 30
0.0
 11
29.3825
 21
67.8078
 31
0.0
  0
LINE
  8
0
 62
     0
 10
29.3825
 20
67.8078
 30
0.0
 11
15.3831
 21
67.8078
 31
0.0
  0
LINE
  8
0
 62
     0
 10
15.3831
 20
67.8078
 30
0.0
 11
15.3831
 21
81.8074
 31
0.0
  0
LINE
  8
0
 62
     0
 10
267.795
 20
100.857
 30
0.0
 11
267.795
 21
96.1566
 31
0.0
  0
LINE
  8
0
 62
     0
 10
267.795
 20
96.1566
 30
0.0
 11
266.27
 21
96.1566
 31
0.0
  0
LINE
  8
0
 62
     0
 10
266.27
 20
96.1566
 30
0.0
 11
266.27
 21
99.387
 31
0.0
  0
LINE
  8
0
 62
     0
 10
266.27
 20
99.387
 30
0.0
 11
264.546
 21
99.387
 31
0.0
  0
LINE
  8
0
 62
     0
 10
264.546
 20
99.387
 30
0.0
 11
264.546
 21
100.307
 31
0.0
  0
LINE
  8
0
 62
     0
 10
264.546
 20
100.307
 30
0.0
 11
261.246
 21
100.307
 31
0.0
  0
LINE
  8
0
 62
     0
 10
261.246
 20
100.307
 30
0.0
 11
261.246
 21
99.387
 31
0.0
  0
LINE
  8
0
 62
     0
 10
261.246
 20
99.387
 30
0.0
 11
259.52
 21
99.387
 31
0.0
  0
LINE
  8
0
 62
     0
 10
259.52
 20
99.387
 30
0.0
 11
259.52
 21
96.1566
 31
0.0
  0
LINE
  8
0
 62
     0
 10
259.52
 20
96.1566
 30
0.0
 11
258.695
 21
96.1566
 31
0.0
  0
LINE
  8
0
 62
     0
 10
258.695
 20
96.1566
 30
0.0
 11
258.695
 21
93.3581
 31
0.0
  0
LINE
  8
0
 62
     0
 10
258.695
 20
93.3581
 30
0.0
 11
259.52
 21
93.3581
 31
0.0
  0
LINE
  8
0
 62
     0
 10
259.52
 20
93.3581
 30
0.0
 11
259.52
 21
87.0878
 31
0.0
  0
LINE
  8
0
 62
     0
 10
259.52
 20
87.0878
 30
0.0
 11
261.246
 21
87.0878
 31
0.0
  0
LINE
  8
0
 62
     0
 10
261.246
 20
87.0878
 30
0.0
 11
261.246
 21
86.1067
 31
0.0
  0
LINE
  8
0
 62
     0
 10
261.246
 20
86.1067
 30
0.0
 11
264.546
 21
86.1067
 31
0.0
  0
LINE
  8
0
 62
     0
 10
264.546
 20
86.1067
 30
0.0
 11
264.546
 21
87.0878
 31
0.0
  0
LINE
  8
0
 62
     0
 10
264.546
 20
87.0878
 30
0.0
 11
266.27
 21
87.0878
 31
0.0
  0
LINE
  8
0
 62
     0
 10
266.27
 20
87.0878
 30
0.0
 11
266.27
 21
91.5568
 31
0.0
  0
LINE
  8
0
 62
     0
 10
266.27
 20
91.5568
 30
0.0
 11
267.795
 21
91.5568
 31
0.0
  0
LINE
  8
0
 62
     0
 10
267.795
 20
91.5568
 30
0.0
 11
267.795
 21
86.8578
 31
0.0
  0
LINE
  8
0
 62
     0
 10
267.795
 20
86.8578
 30
0.0
 11
281.795
 21
86.8578
 31
0.0
  0
LINE
  8
0
 62
     0
 10
281.795
 20
86.8578
 30
0.0
 11
281.795
 21
91.5568
 31
0.0
  0
LINE
  8
0
 62
     0
 10
281.795
 20
91.5568
 30
0.0
 11
283.32
 21
91.5568
 31
0.0
  0
LINE
  8
0
 62
     0
 10
283.32
 20
91.5568
 30
0.0
 11
283.32
 21
87.0878
 31
0.0
  0
LINE
  8
0
 62
     0
 10
283.32
 20
87.0878
 30
0.0
 11
285.046
 21
87.0878
 31
0.0
  0
LINE
  8
0
 62
     0
 10
285.046
 20
87.0878
 30
0.0
 11
285.046
 21
86.1067
 31
0.0
  0
LINE
  8
0
 62
     0
 10
285.046
 20
86.1067
 30
0.0
 11
288.345
 21
86.1067
 31
0.0
  0
LINE
  8
0
 62
     0
 10
288.345
 20
86.1067
 30
0.0
 11
288.345
 21
87.0878
 31
0.0
  0
LINE
  8
0
 62
     0
 10
288.345
 20
87.0878
 30
0.0
 11
290.07
 21
87.0878
 31
0.0
  0
LINE
  8
0
 62
     0
 10
290.07
 20
87.0878
 30
0.0
 11
290.07
 21
93.3581
 31
0.0
  0
LINE
  8
0
 62
     0
 10
290.07
 20
93.3581
 30
0.0
 11
290.896
 21
93.3581
 31
0.0
  0
LINE
  8
0
 62
     0
 10
290.896
 20
93.3581
 30
0.0
 11
290.896
 21
96.1566
 31
0.0
  0
LINE
  8
0
 62
     0
 10
290.896
 20
96.1566
 30
0.0
 11
290.07
 21
96.1566
 31
0.0
  0
LINE
  8
0
 62
     0
 10
290.07
 20
96.1566
 30
0.0
 11
290.07
 21
99.387
 31
0.0
  0
LINE
  8
0
 62
     0
 10
290.07
 20
99.387
 30
0.0
 11
288.345
 21
99.387
 31
0.0
  0
LINE
  8
0
 62
     0
 10
288.345
 20
99.387
 30
0.0
 11
288.345
 21
100.307
 31
0.0
  0
LINE
  8
0
 62
     0
 10
288.345
 20
100.307
 30
0.0
 11
285.046
 21
100.307
 31
0.0
  0
LINE
  8
0
 62
     0
 10
285.046
 20
100.307
 30
0.0
 11
285.046
 21
99.387
 31
0.0
  0
LINE
  8
0
 62
     0
 10
285.046
 20
99.387
 30
0.0
 11
283.32
 21
99.387
 31
0.0
  0
LINE
  8
0
 62
     0
 10
283.32
 20
99.387
 30
0.0
 11
283.32
 21
96.1566
 31
0.0
  0
LINE
  8
0
 62
     0
 10
283.32
 20
96.1566
 30
0.0
 11
281.795
 21
96.1566
 31
0.0
  0
LINE
  8
0
 62
     0
 10
281.795
 20
96.1566
 30
0.0
 11
281.795
 21
100.857
 31
0.0
  0
LINE
  8
0
 62
     0
 10
281.795
 20
100.857
 30
0.0
 11
267.795
 21
100.857
 31
0.0
  0
LINE
  8
0
 62
     0
 10
296.37
 20
100.857
 30
0.0
 11
310.37
 21
100.857
 31
0.0
  0
LINE
  8
0
 62
     0
 10
310.37
 20
100.857
 30
0.0
 11
310.37
 21
86.8578
 31
0.0
  0
LINE
  8
0
 62
     0
 10
310.37
 20
86.8578
 30
0.0
 11
296.37
 21
86.8578
 31
0.0
  0
LINE
  8
0
 62
     0
 10
296.37
 20
86.8578
 30
0.0
 11
296.37
 21
100.857
 31
0.0
  0
LINE
  8
0
 62
     0
 10
239.22
 20
100.857
 30
0.0
 11
253.22
 21
100.857
 31
0.0
  0
LINE
  8
0
 62
     0
 10
253.22
 20
100.857
 30
0.0
 11
253.22
 21
86.8578
 31
0.0
  0
LINE
  8
0
 62
     0
 10
253.22
 20
86.8578
 30
0.0
 11
239.22
 21
86.8578
 31
0.0
  0
LINE
  8
0
 62
     0
 10
239.22
 20
86.8578
 30
0.0
 11
239.22
 21
100.857
 31
0.0
  0
LINE
  8
0
 62
     0
 10
220.17
 20
100.857
 30
0.0
 11
234.17
 21
100.857
 31
0.0
  0
LINE
  8
0
 62
     0
 10
234.17
 20
100.857
 30
0.0
 11
234.17
 21
86.8578
 31
0.0
  0
LINE
  8
0
 62
     0
 10
234.17
 20
86.8578
 30
0.0
 11
220.17
 21
86.8578
 31
0.0
  0
LINE
  8
0
 62
     0
 10
220.17
 20
86.8578
 30
0.0
 11
220.17
 21
100.857
 31
0.0
  0
LINE
  8
0
 62
     0
 10
201.12
 20
100.857
 30
0.0
 11
215.12
 21
100.857
 31
0.0
  0
LINE
  8
0
 62
     0
 10
215.12
 20
100.857
 30
0.0
 11
215.12
 21
86.8578
 31
0.0
  0
LINE
  8
0
 62
     0
 10
215.12
 20
86.8578
 30
0.0
 11
201.12
 21
86.8578
 31
0.0
  0
LINE
  8
0
 62
     0
 10
201.12
 20
86.8578
 30
0.0
 11
201.12
 21
100.857
 31
0.0
  0
LINE
  8
0
 62
     0
 10
182.07
 20
100.857
 30
0.0
 11
196.07
 21
100.857
 31
0.0
  0
LINE
  8
0
 62
     0
 10
196.07
 20
100.857
 30
0.0
 11
196.07
 21
86.8578
 31
0.0
  0
LINE
  8
0
 62
     0
 10
196.07
 20
86.8578
 30
0.0
 11
182.07
 21
86.8578
 31
0.0
  0
LINE
  8
0
 62
     0
 10
182.07
 20
86.8578
 30
0.0
 11
182.07
 21
100.857
 31
0.0
  0
LINE
  8
0
 62
     0
 10
163.02
 20
100.857
 30
0.0
 11
177.02
 21
100.857
 31
0.0
  0
LINE
  8
0
 62
     0
 10
177.02
 20
100.857
 30
0.0
 11
177.02
 21
86.8578
 31
0.0
  0
LINE
  8
0
 62
     0
 10
177.02
 20
86.8578
 30
0.0
 11
163.02
 21
86.8578
 31
0.0
  0
LINE
  8
0
 62
     0
 10
163.02
 20
86.8578
 30
0.0
 11
163.02
 21
100.857
 31
0.0
  0
LINE
  8
0
 62
     0
 10
143.97
 20
100.857
 30
0.0
 11
157.97
 21
100.857
 31
0.0
  0
LINE
  8
0
 62
     0
 10
157.97
 20
100.857
 30
0.0
 11
157.97
 21
86.8578
 31
0.0
  0
LINE
  8
0
 62
     0
 10
157.97
 20
86.8578
 30
0.0
 11
143.97
 21
86.8578
 31
0.0
  0
LINE
  8
0
 62
     0
 10
143.97
 20
86.8578
 30
0.0
 11
143.97
 21
100.857
 31
0.0
  0
LINE
  8
0
 62
     0
 10
124.919
 20
100.857
 30
0.0
 11
138.92
 21
100.857
 31
0.0
  0
LINE
  8
0
 62
     0
 10
138.92
 20
100.857
 30
0.0
 11
138.92
 21
86.8578
 31
0.0
  0
LINE
  8
0
 62
     0
 10
138.92
 20
86.8578
 30
0.0
 11
124.919
 21
86.8578
 31
0.0
  0
LINE
  8
0
 62
     0
 10
124.919
 20
86.8578
 30
0.0
 11
124.919
 21
100.857
 31
0.0
  0
LINE
  8
0
 62
     0
 10
105.869
 20
100.857
 30
0.0
 11
119.87
 21
100.857
 31
0.0
  0
LINE
  8
0
 62
     0
 10
119.87
 20
100.857
 30
0.0
 11
119.87
 21
86.8578
 31
0.0
  0
LINE
  8
0
 62
     0
 10
119.87
 20
86.8578
 30
0.0
 11
105.869
 21
86.8578
 31
0.0
  0
LINE
  8
0
 62
     0
 10
105.869
 20
86.8578
 30
0.0
 11
105.869
 21
100.857
 31
0.0
  0
LINE
  8
0
 62
     0
 10
86.8204
 20
100.857
 30
0.0
 11
100.82
 21
100.857
 31
0.0
  0
LINE
  8
0
 62
     0
 10
100.82
 20
100.857
 30
0.0
 11
100.82
 21
86.8578
 31
0.0
  0
LINE
  8
0
 62
     0
 10
100.82
 20
86.8578
 30
0.0
 11
86.8204
 21
86.8578
 31
0.0
  0
LINE
  8
0
 62
     0
 10
86.8204
 20
86.8578
 30
0.0
 11
86.8204
 21
100.857
 31
0.0
  0
LINE
  8
0
 62
     0
 10
67.7704
 20
100.857
 30
0.0
 11
81.77
 21
100.857
 31
0.0
  0
LINE
  8
0
 62
     0
 10
81.77
 20
100.857
 30
0.0
 11
81.77
 21
86.8578
 31
0.0
  0
LINE
  8
0
 62
     0
 10
81.77
 20
86.8578
 30
0.0
 11
67.7704
 21
86.8578
 31
0.0
  0
LINE
  8
0
 62
     0
 10
67.7704
 20
86.8578
 30
0.0
 11
67.7704
 21
100.857
 31
0.0
  0
LINE
  8
0
 62
     0
 10
48.7204
 20
100.857
 30
0.0
 11
62.72
 21
100.857
 31
0.0
  0
LINE
  8
0
 62
     0
 10
62.72
 20
100.857
 30
0.0
 11
62.72
 21
86.8578
 31
0.0
  0
LINE
  8
0
 62
     0
 10
62.72
 20
86.8578
 30
0.0
 11
48.7204
 21
86.8578
 31
0.0
  0
LINE
  8
0
 62
     0
 10
48.7204
 20
86.8578
 30
0.0
 11
48.7204
 21
100.857
 31
0.0
  0
LINE
  8
0
 62
     0
 10
29.6706
 20
100.857
 30
0.0
 11
43.67
 21
100.857
 31
0.0
  0
LINE
  8
0
 62
     0
 10
43.67
 20
100.857
 30
0.0
 11
43.67
 21
86.8578
 31
0.0
  0
LINE
  8
0
 62
     0
 10
43.67
 20
86.8578
 30
0.0
 11
29.6706
 21
86.8578
 31
0.0
  0
LINE
  8
0
 62
     0
 10
29.6706
 20
86.8578
 30
0.0
 11
29.6706
 21
100.857
 31
0.0
  0
LINE
  8
0
 62
     0
 10
10.6192
 20
100.857
 30
0.0
 11
24.62
 21
100.857
 31
0.0
  0
LINE
  8
0
 62
     0
 10
24.62
 20
100.857
 30
0.0
 11
24.62
 21
86.8578
 31
0.0
  0
LINE
  8
0
 62
     0
 10
24.62
 20
86.8578
 30
0.0
 11
10.6192
 21
86.8578
 31
0.0
  0
LINE
  8
0
 62
     0
 10
10.6192
 20
86.8578
 30
0.0
 11
10.6192
 21
100.857
 31
0.0
  0
LINE
  8
0
 62
     0
 10
296.37
 20
119.908
 30
0.0
 11
310.37
 21
119.908
 31
0.0
  0
LINE
  8
0
 62
     0
 10
310.37
 20
119.908
 30
0.0
 11
310.37
 21
105.908
 31
0.0
  0
LINE
  8
0
 62
     0
 10
310.37
 20
105.908
 30
0.0
 11
296.37
 21
105.908
 31
0.0
  0
LINE
  8
0
 62
     0
 10
296.37
 20
105.908
 30
0.0
 11
296.37
 21
119.908
 31
0.0
  0
LINE
  8
0
 62
     0
 10
277.32
 20
119.908
 30
0.0
 11
291.32
 21
119.908
 31
0.0
  0
LINE
  8
0
 62
     0
 10
291.32
 20
119.908
 30
0.0
 11
291.32
 21
105.908
 31
0.0
  0
LINE
  8
0
 62
     0
 10
291.32
 20
105.908
 30
0.0
 11
277.32
 21
105.908
 31
0.0
  0
LINE
  8
0
 62
     0
 10
277.32
 20
105.908
 30
0.0
 11
277.32
 21
119.908
 31
0.0
  0
LINE
  8
0
 62
     0
 10
258.27
 20
119.908
 30
0.0
 11
272.27
 21
119.908
 31
0.0
  0
LINE
  8
0
 62
     0
 10
272.27
 20
119.908
 30
0.0
 11
272.27
 21
105.908
 31
0.0
  0
LINE
  8
0
 62
     0
 10
272.27
 20
105.908
 30
0.0
 11
258.27
 21
105.908
 31
0.0
  0
LINE
  8
0
 62
     0
 10
258.27
 20
105.908
 30
0.0
 11
258.27
 21
119.908
 31
0.0
  0
LINE
  8
0
 62
     0
 10
239.22
 20
119.908
 30
0.0
 11
253.22
 21
119.908
 31
0.0
  0
LINE
  8
0
 62
     0
 10
253.22
 20
119.908
 30
0.0
 11
253.22
 21
105.908
 31
0.0
  0
LINE
  8
0
 62
     0
 10
253.22
 20
105.908
 30
0.0
 11
239.22
 21
105.908
 31
0.0
  0
LINE
  8
0
 62
     0
 10
239.22
 20
105.908
 30
0.0
 11
239.22
 21
119.908
 31
0.0
  0
LINE
  8
0
 62
     0
 10
220.17
 20
119.908
 30
0.0
 11
234.17
 21
119.908
 31
0.0
  0
LINE
  8
0
 62
     0
 10
234.17
 20
119.908
 30
0.0
 11
234.17
 21
105.908
 31
0.0
  0
LINE
  8
0
 62
     0
 10
234.17
 20
105.908
 30
0.0
 11
220.17
 21
105.908
 31
0.0
  0
LINE
  8
0
 62
     0
 10
220.17
 20
105.908
 30
0.0
 11
220.17
 21
119.908
 31
0.0
  0
LINE
  8
0
 62
     0
 10
201.12
 20
119.908
 30
0.0
 11
215.12
 21
119.908
 31
0.0
  0
LINE
  8
0
 62
     0
 10
215.12
 20
119.908
 30
0.0
 11
215.12
 21
105.908
 31
0.0
  0
LINE
  8
0
 62
     0
 10
215.12
 20
105.908
 30
0.0
 11
201.12
 21
105.908
 31
0.0
  0
LINE
  8
0
 62
     0
 10
201.12
 20
105.908
 30
0.0
 11
201.12
 21
119.908
 31
0.0
  0
LINE
  8
0
 62
     0
 10
182.07
 20
119.908
 30
0.0
 11
196.07
 21
119.908
 31
0.0
  0
LINE
  8
0
 62
     0
 10
196.07
 20
119.908
 30
0.0
 11
196.07
 21
105.908
 31
0.0
  0
LINE
  8
0
 62
     0
 10
196.07
 20
105.908
 30
0.0
 11
182.07
 21
105.908
 31
0.0
  0
LINE
  8
0
 62
     0
 10
182.07
 20
105.908
 30
0.0
 11
182.07
 21
119.908
 31
0.0
  0
LINE
  8
0
 62
     0
 10
163.02
 20
119.908
 30
0.0
 11
177.02
 21
119.908
 31
0.0
  0
LINE
  8
0
 62
     0
 10
177.02
 20
119.908
 30
0.0
 11
177.02
 21
105.908
 31
0.0
  0
LINE
  8
0
 62
     0
 10
177.02
 20
105.908
 30
0.0
 11
163.02
 21
105.908
 31
0.0
  0
LINE
  8
0
 62
     0
 10
163.02
 20
105.908
 30
0.0
 11
163.02
 21
119.908
 31
0.0
  0
LINE
  8
0
 62
     0
 10
143.97
 20
119.908
 30
0.0
 11
157.97
 21
119.908
 31
0.0
  0
LINE
  8
0
 62
     0
 10
157.97
 20
119.908
 30
0.0
 11
157.97
 21
105.908
 31
0.0
  0
LINE
  8
0
 62
     0
 10
157.97
 20
105.908
 30
0.0
 11
143.97
 21
105.908
 31
0.0
  0
LINE
  8
0
 62
     0
 10
143.97
 20
105.908
 30
0.0
 11
143.97
 21
119.908
 31
0.0
  0
LINE
  8
0
 62
     0
 10
124.919
 20
119.908
 30
0.0
 11
138.92
 21
119.908
 31
0.0
  0
LINE
  8
0
 62
     0
 10
138.92
 20
119.908
 30
0.0
 11
138.92
 21
105.908
 31
0.0
  0
LINE
  8
0
 62
     0
 10
138.92
 20
105.908
 30
0.0
 11
124.919
 21
105.908
 31
0.0
  0
LINE
  8
0
 62
     0
 10
124.919
 20
105.908
 30
0.0
 11
124.919
 21
119.908
 31
0.0
  0
LINE
  8
0
 62
     0
 10
105.869
 20
119.908
 30
0.0
 11
119.87
 21
119.908
 31
0.0
  0
LINE
  8
0
 62
     0
 10
119.87
 20
119.908
 30
0.0
 11
119.87
 21
105.908
 31
0.0
  0
LINE
  8
0
 62
     0
 10
119.87
 20
105.908
 30
0.0
 11
105.869
 21
105.908
 31
0.0
  0
LINE
  8
0
 62
     0
 10
105.869
 20
105.908
 30
0.0
 11
105.869
 21
119.908
 31
0.0
  0
LINE
  8
0
 62
     0
 10
86.8204
 20
119.908
 30
0.0
 11
100.82
 21
119.908
 31
0.0
  0
LINE
  8
0
 62
     0
 10
100.82
 20
119.908
 30
0.0
 11
100.82
 21
105.908
 31
0.0
  0
LINE
  8
0
 62
     0
 10
100.82
 20
105.908
 30
0.0
 11
86.8204
 21
105.908
 31
0.0
  0
LINE
  8
0
 62
     0
 10
86.8204
 20
105.908
 30
0.0
 11
86.8204
 21
119.908
 31
0.0
  0
LINE
  8
0
 62
     0
 10
67.7704
 20
119.908
 30
0.0
 11
81.77
 21
119.908
 31
0.0
  0
LINE
  8
0
 62
     0
 10
81.77
 20
119.908
 30
0.0
 11
81.77
 21
105.908
 31
0.0
  0
LINE
  8
0
 62
     0
 10
81.77
 20
105.908
 30
0.0
 11
67.7704
 21
105.908
 31
0.0
  0
LINE
  8
0
 62
     0
 10
67.7704
 20
105.908
 30
0.0
 11
67.7704
 21
119.908
 31
0.0
  0
LINE
  8
0
 62
     0
 10
48.7204
 20
119.908
 30
0.0
 11
62.72
 21
119.908
 31
0.0
  0
LINE
  8
0
 62
     0
 10
62.72
 20
119.908
 30
0.0
 11
62.72
 21
105.908
 31
0.0
  0
LINE
  8
0
 62
     0
 10
62.72
 20
105.908
 30
0.0
 11
48.7204
 21
105.908
 31
0.0
  0
LINE
  8
0
 62
     0
 10
48.7204
 20
105.908
 30
0.0
 11
48.7204
 21
119.908
 31
0.0
  0
LINE
  8
0
 62
     0
 10
29.6706
 20
119.908
 30
0.0
 11
43.67
 21
119.908
 31
0.0
  0
LINE
  8
0
 62
     0
 10
43.67
 20
119.908
 30
0.0
 11
43.67
 21
105.908
 31
0.0
  0
LINE
  8
0
 62
     0
 10
43.67
 20
105.908
 30
0.0
 11
29.6706
 21
105.908
 31
0.0
  0
LINE
  8
0
 62
     0
 10
29.6706
 20
105.908
 30
0.0
 11
29.6706
 21
119.908
 31
0.0
  0
LINE
  8
0
 62
     0
 10
10.6192
 20
119.908
 30
0.0
 11
24.62
 21
119.908
 31
0.0
  0
LINE
  8
0
 62
     0
 10
24.62
 20
119.908
 30
0.0
 11
24.62
 21
105.908
 31
0.0
  0
LINE
  8
0
 62
     0
 10
24.62
 20
105.908
 30
0.0
 11
10.6192
 21
105.908
 31
0.0
  0
LINE
  8
0
 62
     0
 10
10.6192
 20
105.908
 30
0.0
 11
10.6192
 21
119.908
 31
0.0
  0
LINE
  8
0
 62
     0
 10
2.60036
 20
128.954
 30
0.0
 11
2.15387
 21
128.727
 31
0.0
  0
LINE
  8
0
 62
     0
 10
2.15387
 20
128.727
 30
0.0
 11
1.8011
 21
128.374
 31
0.0
  0
LINE
  8
0
 62
     0
 10
1.8011
 20
128.374
 30
0.0
 11
1.57372
 21
127.927
 31
0.0
  0
LINE
  8
0
 62
     0
 10
1.57372
 20
127.927
 30
0.0
 11
1.49517
 21
127.433
 31
0.0
  0
LINE
  8
0
 62
     0
 10
1.49517
 20
127.433
 30
0.0
 11
1.57372
 21
126.938
 31
0.0
  0
LINE
  8
0
 62
     0
 10
1.57372
 20
126.938
 30
0.0
 11
1.8011
 21
126.493
 31
0.0
  0
LINE
  8
0
 62
     0
 10
1.8011
 20
126.493
 30
0.0
 11
2.15387
 21
126.139
 31
0.0
  0
LINE
  8
0
 62
     0
 10
2.15387
 20
126.139
 30
0.0
 11
2.60036
 21
125.911
 31
0.0
  0
LINE
  8
0
 62
     0
 10
2.60036
 20
125.911
 30
0.0
 11
3.09507
 21
125.833
 31
0.0
  0
LINE
  8
0
 62
     0
 10
3.09507
 20
125.833
 30
0.0
 11
3.5898
 21
125.911
 31
0.0
  0
LINE
  8
0
 62
     0
 10
3.5898
 20
125.911
 30
0.0
 11
4.0349
 21
126.139
 31
0.0
  0
LINE
  8
0
 62
     0
 10
4.0349
 20
126.139
 30
0.0
 11
4.38905
 21
126.493
 31
0.0
  0
LINE
  8
0
 62
     0
 10
4.38905
 20
126.493
 30
0.0
 11
4.61641
 21
126.938
 31
0.0
  0
LINE
  8
0
 62
     0
 10
4.61641
 20
126.938
 30
0.0
 11
4.69498
 21
127.433
 31
0.0
  0
LINE
  8
0
 62
     0
 10
4.69498
 20
127.433
 30
0.0
 11
4.61641
 21
127.927
 31
0.0
  0
LINE
  8
0
 62
     0
 10
4.61641
 20
127.927
 30
0.0
 11
4.38905
 21
128.374
 31
0.0
  0
LINE
  8
0
 62
     0
 10
4.38905
 20
128.374
 30
0.0
 11
4.0349
 21
128.727
 31
0.0
  0
LINE
  8
0
 62
     0
 10
4.0349
 20
128.727
 30
0.0
 11
3.5898
 21
128.954
 31
0.0
  0
LINE
  8
0
 62
     0
 10
3.5898
 20
128.954
 30
0.0
 11
3.09507
 21
129.033
 31
0.0
  0
LINE
  8
0
 62
     0
 10
3.09507
 20
129.033
 30
0.0
 11
2.60036
 21
128.954
 31
0.0
  0
LINE
  8
0
 62
     0
 10
317.402
 20
128.954
 30
0.0
 11
316.956
 21
128.727
 31
0.0
  0
LINE
  8
0
 62
     0
 10
316.956
 20
128.727
 30
0.0
 11
316.601
 21
128.374
 31
0.0
  0
LINE
  8
0
 62
     0
 10
316.601
 20
128.374
 30
0.0
 11
316.374
 21
127.927
 31
0.0
  0
LINE
  8
0
 62
     0
 10
316.374
 20
127.927
 30
0.0
 11
316.297
 21
127.433
 31
0.0
  0
LINE
  8
0
 62
     0
 10
316.297
 20
127.433
 30
0.0
 11
316.374
 21
126.938
 31
0.0
  0
LINE
  8
0
 62
     0
 10
316.374
 20
126.938
 30
0.0
 11
316.601
 21
126.493
 31
0.0
  0
LINE
  8
0
 62
     0
 10
316.601
 20
126.493
 30
0.0
 11
316.956
 21
126.139
 31
0.0
  0
LINE
  8
0
 62
     0
 10
316.956
 20
126.139
 30
0.0
 11
317.402
 21
125.911
 31
0.0
  0
LINE
  8
0
 62
     0
 10
317.402
 20
125.911
 30
0.0
 11
317.897
 21
125.833
 31
0.0
  0
LINE
  8
0
 62
     0
 10
317.897
 20
125.833
 30
0.0
 11
318.39
 21
125.911
 31
0.0
  0
LINE
  8
0
 62
     0
 10
318.39
 20
125.911
 30
0.0
 11
318.837
 21
126.139
 31
0.0
  0
LINE
  8
0
 62
     0
 10
318.837
 20
126.139
 30
0.0
 11
319.191
 21
126.493
 31
0.0
  0
LINE
  8
0
 62
     0
 10
319.191
 20
126.493
 30
0.0
 11
319.417
 21
126.938
 31
0.0
  0
LINE
  8
0
 62
     0
 10
319.417
 20
126.938
 30
0.0
 11
319.497
 21
127.433
 31
0.0
  0
LINE
  8
0
 62
     0
 10
319.497
 20
127.433
 30
0.0
 11
319.417
 21
127.927
 31
0.0
  0
LINE
  8
0
 62
     0
 10
319.417
 20
127.927
 30
0.0
 11
319.191
 21
128.374
 31
0.0
  0
LINE
  8
0
 62
     0
 10
319.191
 20
128.374
 30
0.0
 11
318.837
 21
128.727
 31
0.0
  0
LINE
  8
0
 62
     0
 10
318.837
 20
128.727
 30
0.0
 11
318.39
 21
128.954
 31
0.0
  0
LINE
  8
0
 62
     0
 10
318.39
 20
128.954
 30
0.0
 11
317.897
 21
129.033
 31
0.0
  0
LINE
  8
0
 62
     0
 10
317.897
 20
129.033
 30
0.0
 11
317.402
 21
128.954
 31
0.0
  0
LINE
  8
0
 62
     0
 10
212.467
 20
128.954
 30
0.0
 11
212.021
 21
128.727
 31
0.0
  0
LINE
  8
0
 62
     0
 10
212.021
 20
128.727
 30
0.0
 11
211.668
 21
128.374
 31
0.0
  0
LINE
  8
0
 62
     0
 10
211.668
 20
128.374
 30
0.0
 11
211.441
 21
127.927
 31
0.0
  0
LINE
  8
0
 62
     0
 10
211.441
 20
127.927
 30
0.0
 11
211.362
 21
127.433
 31
0.0
  0
LINE
  8
0
 62
     0
 10
211.362
 20
127.433
 30
0.0
 11
211.441
 21
126.938
 31
0.0
  0
LINE
  8
0
 62
     0
 10
211.441
 20
126.938
 30
0.0
 11
211.668
 21
126.493
 31
0.0
  0
LINE
  8
0
 62
     0
 10
211.668
 20
126.493
 30
0.0
 11
212.021
 21
126.139
 31
0.0
  0
LINE
  8
0
 62
     0
 10
212.021
 20
126.139
 30
0.0
 11
212.467
 21
125.911
 31
0.0
  0
LINE
  8
0
 62
     0
 10
212.467
 20
125.911
 30
0.0
 11
212.962
 21
125.833
 31
0.0
  0
LINE
  8
0
 62
     0
 10
212.962
 20
125.833
 30
0.0
 11
213.457
 21
125.911
 31
0.0
  0
LINE
  8
0
 62
     0
 10
213.457
 20
125.911
 30
0.0
 11
213.902
 21
126.139
 31
0.0
  0
LINE
  8
0
 62
     0
 10
213.902
 20
126.139
 30
0.0
 11
214.256
 21
126.493
 31
0.0
  0
LINE
  8
0
 62
     0
 10
214.256
 20
126.493
 30
0.0
 11
214.485
 21
126.938
 31
0.0
  0
LINE
  8
0
 62
     0
 10
214.485
 20
126.938
 30
0.0
 11
214.562
 21
127.433
 31
0.0
  0
LINE
  8
0
 62
     0
 10
214.562
 20
127.433
 30
0.0
 11
214.485
 21
127.927
 31
0.0
  0
LINE
  8
0
 62
     0
 10
214.485
 20
127.927
 30
0.0
 11
214.256
 21
128.374
 31
0.0
  0
LINE
  8
0
 62
     0
 10
214.256
 20
128.374
 30
0.0
 11
213.902
 21
128.727
 31
0.0
  0
LINE
  8
0
 62
     0
 10
213.902
 20
128.727
 30
0.0
 11
213.457
 21
128.954
 31
0.0
  0
LINE
  8
0
 62
     0
 10
213.457
 20
128.954
 30
0.0
 11
212.962
 21
129.033
 31
0.0
  0
LINE
  8
0
 62
     0
 10
212.962
 20
129.033
 30
0.0
 11
212.467
 21
128.954
 31
0.0
  0
LINE
  8
0
 62
     0
 10
107.534
 20
128.954
 30
0.0
 11
107.089
 21
128.727
 31
0.0
  0
LINE
  8
0
 62
     0
 10
107.089
 20
128.727
 30
0.0
 11
106.735
 21
128.374
 31
0.0
  0
LINE
  8
0
 62
     0
 10
106.735
 20
128.374
 30
0.0
 11
106.506
 21
127.927
 31
0.0
  0
LINE
  8
0
 62
     0
 10
106.506
 20
127.927
 30
0.0
 11
106.429
 21
127.433
 31
0.0
  0
LINE
  8
0
 62
     0
 10
106.429
 20
127.433
 30
0.0
 11
106.506
 21
126.938
 31
0.0
  0
LINE
  8
0
 62
     0
 10
106.506
 20
126.938
 30
0.0
 11
106.735
 21
126.493
 31
0.0
  0
LINE
  8
0
 62
     0
 10
106.735
 20
126.493
 30
0.0
 11
107.089
 21
126.139
 31
0.0
  0
LINE
  8
0
 62
     0
 10
107.089
 20
126.139
 30
0.0
 11
107.534
 21
125.911
 31
0.0
  0
LINE
  8
0
 62
     0
 10
107.534
 20
125.911
 30
0.0
 11
108.029
 21
125.833
 31
0.0
  0
LINE
  8
0
 62
     0
 10
108.029
 20
125.833
 30
0.0
 11
108.523
 21
125.911
 31
0.0
  0
LINE
  8
0
 62
     0
 10
108.523
 20
125.911
 30
0.0
 11
108.97
 21
126.139
 31
0.0
  0
LINE
  8
0
 62
     0
 10
108.97
 20
126.139
 30
0.0
 11
109.324
 21
126.493
 31
0.0
  0
LINE
  8
0
 62
     0
 10
109.324
 20
126.493
 30
0.0
 11
109.55
 21
126.938
 31
0.0
  0
LINE
  8
0
 62
     0
 10
109.55
 20
126.938
 30
0.0
 11
109.629
 21
127.433
 31
0.0
  0
LINE
  8
0
 62
     0
 10
109.629
 20
127.433
 30
0.0
 11
109.55
 21
127.927
 31
0.0
  0
LINE
  8
0
 62
     0
 10
109.55
 20
127.927
 30
0.0
 11
109.324
 21
128.374
 31
0.0
  0
LINE
  8
0
 62
     0
 10
109.324
 20
128.374
 30
0.0
 11
108.97
 21
128.727
 31
0.0
  0
LINE
  8
0
 62
     0
 10
108.97
 20
128.727
 30
0.0
 11
108.523
 21
128.954
 31
0.0
  0
LINE
  8
0
 62
     0
 10
108.523
 20
128.954
 30
0.0
 11
108.029
 21
129.033
 31
0.0
  0
LINE
  8
0
 62
     0
 10
108.029
 20
129.033
 30
0.0
 11
107.534
 21
128.954
 31
0.0
  0
ENDSEC
  0
EOF
