<?xml version="1.0" encoding="UTF-8" standalone="no"?>
<svg
   xmlns:dc="http://purl.org/dc/elements/1.1/"
   xmlns:cc="http://creativecommons.org/ns#"
   xmlns:rdf="http://www.w3.org/1999/02/22-rdf-syntax-ns#"
   xmlns:svg="http://www.w3.org/2000/svg"
   xmlns="http://www.w3.org/2000/svg"
   viewBox="0 0 793.70135 1122.52"
   height="1122.52"
   width="793.70135"
   xml:space="preserve"
   id="svg2"
   version="1.1"><metadata
     id="metadata8"><rdf:RDF><cc:Work
         rdf:about=""><dc:format>image/svg+xml</dc:format><dc:type
           rdf:resource="http://purl.org/dc/dcmitype/StillImage" /><dc:title></dc:title></cc:Work></rdf:RDF></metadata><defs
     id="defs6"><clipPath
       id="clipPath18"
       clipPathUnits="userSpaceOnUse"><path
         id="path16"
         d="M 0,841.89 H 595.276 V 0 H 0 Z" /></clipPath><clipPath
       id="clipPath122"
       clipPathUnits="userSpaceOnUse"><path
         id="path120"
         d="M 0,841.89 H 595.276 V 0 H 0 Z" /></clipPath></defs><g
     transform="matrix(1.3333333,0,0,-1.3333333,0,1122.52)"
     id="g10"><g
       id="g12"><g
         clip-path="url(#clipPath18)"
         id="g14"><g
           transform="translate(180.354,839.0553)"
           id="g20"><path
             id="path22"
             style="fill:#000100;fill-opacity:1;fill-rule:nonzero;stroke:none"
             d="m 0,0 c -10.899,0 -19.843,-8.944 -19.843,-19.843 0,-9.3 6.526,-17.748 15.192,-19.843 v 6.565 c -0.858,-0.188 -1.649,-0.193 -2.523,0.064 -1.172,0.347 -2.125,1.128 -2.832,2.319 -0.452,0.76 -1.25,1.585 -2.084,1.525 l -0.204,2.316 c 1.802,0.154 3.361,-1.098 4.287,-2.653 0.411,-0.692 0.884,-1.097 1.492,-1.277 0.587,-0.173 1.217,-0.09 1.952,0.17 0.184,1.47 0.858,2.021 1.367,2.796 v 0.001 c -5.169,0.771 -7.228,3.513 -8.046,5.677 -1.083,2.874 -0.502,6.464 1.414,8.733 0.037,0.044 0.104,0.159 0.078,0.241 -0.878,2.653 0.192,4.848 0.231,5.08 1.014,-0.299 1.179,0.302 4.404,-1.658 l 0.557,-0.334 c 0.233,-0.139 0.16,-0.06 0.393,-0.043 1.347,0.367 2.766,0.568 4.165,0.586 1.409,-0.018 2.819,-0.219 4.221,-0.6 l 0.181,-0.018 c -0.016,0.002 0.049,0.011 0.158,0.076 4.028,2.44 3.883,1.642 4.963,1.994 0.04,-0.233 1.096,-2.464 0.227,-5.083 -0.118,-0.361 3.492,-3.667 1.491,-8.973 -0.817,-2.165 -2.877,-4.907 -8.045,-5.678 v -0.001 c 0.662,-1.01 1.458,-1.547 1.454,-3.63 v -8.195 c 8.666,2.095 15.192,10.543 15.192,19.843 C 19.843,-8.944 10.898,0 0,0" /></g><g
           transform="translate(23.7407,818.9733)"
           id="g24"><path
             id="path26"
             style="fill:#939292;fill-opacity:1;fill-rule:nonzero;stroke:none"
             d="M 0,0 V 1.908 C 1.269,2.238 2.569,1.924 3.845,2.095 3.996,1.334 3.996,0.573 3.846,-0.188 2.569,-0.015 1.269,-0.331 0,0" /></g><g
           transform="translate(41.8643,839.0045)"
           id="g28"><path
             id="path30"
             style="fill:#939292;fill-opacity:1;fill-rule:nonzero;stroke:none"
             d="m 0,0 h 1.908 c 0.329,-1.269 0.017,-2.569 0.187,-3.845 -0.761,-0.151 -1.522,-0.151 -2.283,0 C -0.016,-2.569 -0.331,-1.269 0,0" /></g><g
           transform="translate(32.8989,835.173)"
           id="g32"><path
             id="path34"
             style="fill:#939292;fill-opacity:1;fill-rule:nonzero;stroke:none"
             d="M 0,0 C 0.121,1.274 -0.172,2.569 0.189,3.832 H 2.097 C 2.399,2.564 2.149,1.27 2.284,-0.006 1.522,-0.165 0.761,-0.175 0,0" /></g><g
           transform="translate(37.4761,839.0045)"
           id="g36"><path
             id="path38"
             style="fill:#939292;fill-opacity:1;fill-rule:nonzero;stroke:none"
             d="M 0,0 H 1.908 C 2.269,-1.259 2.015,-2.548 2.097,-3.821 1.336,-4.015 0.574,-3.994 -0.188,-3.839 -0.04,-2.563 -0.351,-1.265 0,0" /></g><g
           transform="translate(46.252,839.0045)"
           id="g40"><path
             id="path42"
             style="fill:#939292;fill-opacity:1;fill-rule:nonzero;stroke:none"
             d="M 0,0 H 1.908 C 2.259,-1.265 1.948,-2.563 2.096,-3.838 1.333,-3.994 0.571,-4.015 -0.189,-3.821 -0.106,-2.548 -0.361,-1.259 0,0" /></g><g
           transform="translate(52.5474,839.0045)"
           id="g44"><path
             id="path46"
             style="fill:#939292;fill-opacity:1;fill-rule:nonzero;stroke:none"
             d="m 0,0 c 0.361,-1.262 0.069,-2.557 0.189,-3.832 -0.761,-0.175 -1.522,-0.164 -2.284,-0.006 0.138,1.275 -0.117,2.57 0.187,3.838 z" /></g><g
           transform="translate(23.7407,829.6569)"
           id="g48"><path
             id="path50"
             style="fill:#939292;fill-opacity:1;fill-rule:nonzero;stroke:none"
             d="M 0,0 C 1.262,0.361 2.557,0.069 3.832,0.189 4.007,-0.572 3.996,-1.333 3.838,-2.095 2.563,-1.958 1.268,-2.212 0,-1.908 Z" /></g><g
           transform="translate(23.7407,823.3615)"
           id="g52"><path
             id="path54"
             style="fill:#939292;fill-opacity:1;fill-rule:nonzero;stroke:none"
             d="M 0,0 V 1.908 C 1.265,2.259 2.563,1.948 3.839,2.096 3.994,1.333 4.015,0.571 3.821,-0.189 2.548,-0.106 1.259,-0.361 0,0" /></g><g
           transform="translate(23.7407,814.5856)"
           id="g56"><path
             id="path58"
             style="fill:#939292;fill-opacity:1;fill-rule:nonzero;stroke:none"
             d="M 0,0 V 1.908 C 1.259,2.269 2.548,2.014 3.821,2.097 4.015,1.336 3.994,0.574 3.839,-0.188 2.563,-0.04 1.265,-0.351 0,0" /></g><g
           transform="translate(27.5723,810.0084)"
           id="g60"><path
             id="path62"
             style="fill:#939292;fill-opacity:1;fill-rule:nonzero;stroke:none"
             d="M 0,0 C -1.274,0.121 -2.569,-0.172 -3.832,0.189 V 2.097 C -2.564,2.401 -1.27,2.147 0.006,2.284 0.165,1.522 0.175,0.761 0,0" /></g><g
           transform="translate(44.0527,822.6949)"
           id="g64"><path
             id="path66"
             style="fill:#353636;fill-opacity:1;fill-rule:nonzero;stroke:none"
             d="m 0,0 c 0,1.811 -0.031,3.624 0.012,5.434 0.023,0.938 -0.584,0.92 -1.196,0.91 -0.617,-0.01 -1.311,0.103 -1.289,-0.916 0.041,-1.874 0.012,-3.749 0.012,-5.624 0,-1.78 0.003,-3.56 -0.004,-5.339 -0.001,-0.295 0.104,-0.633 -0.442,-0.627 -1.887,0.021 -3.619,1.159 -4.216,2.878 -0.282,0.812 -0.384,1.666 -0.382,2.531 0.005,2.097 -0.02,4.195 0.011,6.292 0.014,0.845 -0.548,0.825 -1.082,0.8 -0.547,-0.026 -1.319,0.212 -1.313,-0.77 0.015,-2.669 -0.035,-5.341 0.09,-8.005 0.08,-1.703 0.852,-3.178 2.222,-4.26 1.129,-0.891 2.453,-1.336 3.871,-1.417 0.963,-0.055 1.435,-0.359 1.262,-1.414 -0.097,-0.588 -0.018,-1.204 -0.015,-1.808 10e-4,-0.304 0.078,-0.518 0.419,-0.65 1.235,-0.478 2.039,0.016 2.04,1.294 0,0.318 0,0.636 0,0.954 0,1.445 0,1.445 1.41,1.632 3.511,0.464 5.82,2.89 5.967,6.422 C 7.475,0.665 7.386,3.02 7.446,5.37 7.471,6.348 6.877,6.344 6.215,6.353 5.529,6.361 5,6.317 5.033,5.343 5.104,3.184 5.082,1.021 5.046,-1.139 4.999,-4.024 3.59,-5.621 0.812,-6.104 0.185,-6.213 -0.03,-6.114 -0.014,-5.434 0.027,-3.624 0,-1.812 0,0 m -16.473,2.763 c -0.001,0.701 -0.001,1.403 -0.001,2.104 0.158,0.761 0.169,1.523 -0.006,2.284 0.152,3.569 1.759,5.176 5.326,5.327 0.761,-0.175 1.523,-0.165 2.284,-0.006 0.702,0 1.403,-10e-4 2.105,-10e-4 0.763,-0.155 1.525,-0.176 2.285,0.017 0.701,-0.008 1.402,-0.016 2.103,-0.024 0.761,-0.15 1.523,-0.151 2.283,0 0.701,0.008 1.403,0.016 2.104,0.024 0.76,-0.193 1.522,-0.172 2.285,-0.017 0.702,0 1.403,0 2.104,10e-4 0.762,-0.158 1.524,-0.169 2.285,0.006 3.568,-0.152 5.174,-1.758 5.327,-5.327 -0.176,-0.761 -0.164,-1.523 -0.007,-2.285 0,-0.701 0,-1.402 0,-2.104 C 13.849,2 13.828,1.237 14.021,0.477 c -0.008,-0.701 -0.016,-1.402 -0.024,-2.103 -0.151,-0.761 -0.15,-1.523 0,-2.284 0.008,-0.701 0.016,-1.402 0.024,-2.103 -0.193,-0.76 -0.172,-1.522 -0.018,-2.285 10e-4,-0.702 10e-4,-1.403 10e-4,-2.104 -0.157,-0.762 -0.168,-1.524 0.007,-2.285 -0.152,-3.567 -1.76,-5.174 -5.327,-5.326 -0.761,0.175 -1.523,0.164 -2.285,0.006 -0.701,0.001 -1.402,0.001 -2.104,0.001 -0.763,0.155 -1.524,0.176 -2.285,-0.017 -0.701,0.008 -1.402,0.016 -2.103,0.023 -0.761,0.151 -1.523,0.151 -2.284,0.001 -0.701,-0.008 -1.402,-0.017 -2.103,-0.024 -0.76,0.193 -1.522,0.171 -2.286,0.017 -0.701,0 -1.402,0 -2.104,-0.001 -0.761,0.158 -1.523,0.169 -2.284,-0.006 -3.567,0.151 -5.175,1.759 -5.326,5.326 0.175,0.761 0.164,1.522 0.006,2.285 0,0.701 0,1.402 0.001,2.104 0.155,0.763 0.176,1.525 -0.018,2.285 0.009,0.701 0.016,1.402 0.025,2.103 0.15,0.762 0.15,1.522 -10e-4,2.284 -0.008,0.701 -0.015,1.402 -0.024,2.103 0.194,0.761 0.173,1.523 0.018,2.286" /></g><g
           transform="translate(41.6753,804.6959)"
           id="g68"><path
             id="path70"
             style="fill:#939292;fill-opacity:1;fill-rule:nonzero;stroke:none"
             d="M 0,0 C 0.762,0.15 1.523,0.15 2.284,0 2.27,-1.012 2.225,-2.025 2.25,-3.036 2.272,-3.939 1.674,-3.84 1.095,-3.853 0.51,-3.865 0.015,-3.848 0.035,-3.036 0.06,-2.025 0.015,-1.012 0,0" /></g><g
           transform="translate(58.0498,818.7848)"
           id="g72"><path
             id="path74"
             style="fill:#939292;fill-opacity:1;fill-rule:nonzero;stroke:none"
             d="M 0,0 C -0.15,0.761 -0.151,1.523 0,2.284 1.012,2.27 2.025,2.224 3.036,2.25 3.94,2.273 3.839,1.673 3.852,1.095 3.865,0.511 3.847,0.015 3.035,0.035 2.024,0.06 1.012,0.015 0,0" /></g><g
           transform="translate(46.0625,804.6715)"
           id="g76"><path
             id="path78"
             style="fill:#939292;fill-opacity:1;fill-rule:nonzero;stroke:none"
             d="M 0,0 C 0.761,0.193 1.522,0.172 2.286,0.017 2.275,-0.991 2.239,-2 2.263,-3.008 2.28,-3.721 1.895,-3.851 1.305,-3.829 0.708,-3.808 0.027,-3.944 0.011,-3.027 -0.007,-2.019 0.002,-1.009 0,0" /></g><g
           transform="translate(58.0571,827.5612)"
           id="g80"><path
             id="path82"
             style="fill:#939292;fill-opacity:1;fill-rule:nonzero;stroke:none"
             d="M 0,0 C -0.158,0.762 -0.169,1.524 0.006,2.285 0.984,2.279 1.962,2.238 2.938,2.277 3.751,2.31 3.854,1.876 3.855,1.211 3.857,0.531 3.789,0.021 2.929,0.034 1.953,0.047 0.977,0.013 0,0" /></g><g
           transform="translate(50.4521,804.6881)"
           id="g84"><path
             id="path86"
             style="fill:#939292;fill-opacity:1;fill-rule:nonzero;stroke:none"
             d="M 0,0 C 0.762,0.158 1.523,0.169 2.284,-0.006 2.278,-0.983 2.237,-1.962 2.276,-2.938 2.309,-3.75 1.875,-3.854 1.21,-3.855 0.531,-3.857 0.021,-3.789 0.033,-2.929 0.047,-1.953 0.013,-0.977 0,0" /></g><g
           transform="translate(58.0737,823.172)"
           id="g88"><path
             id="path90"
             style="fill:#939292;fill-opacity:1;fill-rule:nonzero;stroke:none"
             d="M 0,0 C -0.193,0.76 -0.172,1.522 -0.017,2.285 0.992,2.275 2.001,2.239 3.009,2.263 3.722,2.28 3.851,1.895 3.829,1.305 3.808,0.708 3.944,0.027 3.027,0.011 2.019,-0.007 1.009,0.002 0,0" /></g><g
           transform="translate(58.0562,814.3966)"
           id="g92"><path
             id="path94"
             style="fill:#939292;fill-opacity:1;fill-rule:nonzero;stroke:none"
             d="M 0,0 C -0.154,0.763 -0.176,1.525 0.018,2.286 0.995,2.284 1.973,2.271 2.95,2.283 3.916,2.295 3.828,1.633 3.852,0.981 3.876,0.305 3.649,-0.003 2.931,0.021 1.956,0.053 0.977,0.01 0,0" /></g><g
           transform="translate(58.0635,810.0084)"
           id="g96"><path
             id="path98"
             style="fill:#939292;fill-opacity:1;fill-rule:nonzero;stroke:none"
             d="M 0,0 C -0.175,0.761 -0.164,1.522 -0.006,2.284 0.97,2.271 1.947,2.236 2.923,2.252 3.876,2.268 3.832,1.65 3.847,0.98 3.862,0.306 3.648,-0.013 2.931,0.01 1.955,0.041 0.977,0.006 0,0" /></g><g
           transform="translate(32.8989,804.6818)"
           id="g100"><path
             id="path102"
             style="fill:#939292;fill-opacity:1;fill-rule:nonzero;stroke:none"
             d="M 0,0 C 0.761,0.175 1.522,0.165 2.284,0.006 2.271,-0.97 2.237,-1.947 2.251,-2.923 2.266,-3.873 1.651,-3.833 0.979,-3.847 0.305,-3.862 -0.013,-3.648 0.01,-2.931 0.041,-1.955 0.006,-0.977 0,0" /></g><g
           transform="translate(37.2871,804.6891)"
           id="g104"><path
             id="path106"
             style="fill:#939292;fill-opacity:1;fill-rule:nonzero;stroke:none"
             d="M 0,0 C 0.763,0.154 1.525,0.176 2.286,-0.018 2.284,-0.995 2.272,-1.973 2.283,-2.951 2.295,-3.916 1.633,-3.828 0.981,-3.852 0.304,-3.876 -0.003,-3.649 0.021,-2.931 0.053,-1.956 0.011,-0.977 0,0" /></g></g></g><text
       id="text114"
       style="font-variant:normal;font-weight:bold;font-stretch:normal;font-size:12px;font-family:'Times New Roman';-inkscape-font-specification:TimesNewRomanPS-BoldMT;writing-mode:lr-tb;fill:#231916;fill-opacity:1;fill-rule:nonzero;stroke:none"
       transform="matrix(1,0,0,-1,80.958,827.2251)"><tspan
         id="tspan108"
         y="0"
         x="0 7.3319998 16.667999 28.667999 36.672001 45.335999 53.34">POWERED</tspan><tspan
         id="tspan110"
         y="10.404"
         x="22.884001 30.888">BY</tspan><tspan
         id="tspan112"
         y="20.808001"
         x="-13.008 -3.6719999 7.6560001 16.992001 26.988001 36.324001 40.992001 48.995998 58.332001 66.996002">QMK&amp;GITHUB</tspan></text>
<g
       id="g116"><g
         clip-path="url(#clipPath122)"
         id="g118"><g
           transform="translate(222.5195,796.5353)"
           id="g124"><path
             id="path126"
             style="fill:none;stroke:#231916;stroke-width:1;stroke-linecap:butt;stroke-linejoin:miter;stroke-miterlimit:10;stroke-dasharray:none;stroke-opacity:1"
             d="m 0,0 h -209.764 l -12.756,12.756 v 31.181 l 1.418,1.417 H -11.338 L 1.417,32.599 V 1.417 Z" /></g><g
           transform="translate(16.2993,819.2125)"
           id="g128"><path
             id="path130"
             style="fill:none;stroke:#231916;stroke-width:1;stroke-linecap:butt;stroke-linejoin:miter;stroke-miterlimit:10;stroke-dasharray:none;stroke-opacity:1"
             d="m 0,0 c 0,-1.957 -1.586,-3.543 -3.543,-3.543 -1.957,0 -3.544,1.586 -3.544,3.543 0,1.957 1.587,3.543 3.544,3.543 C -1.586,3.543 0,1.957 0,0 Z" /></g><g
           transform="translate(213.3071,819.2125)"
           id="g132"><path
             id="path134"
             style="fill:none;stroke:#231916;stroke-width:1;stroke-linecap:butt;stroke-linejoin:miter;stroke-miterlimit:10;stroke-dasharray:none;stroke-opacity:1"
             d="m 0,0 c 0,-1.957 -1.586,-3.543 -3.543,-3.543 -1.957,0 -3.543,1.586 -3.543,3.543 0,1.957 1.586,3.543 3.543,3.543 C -1.586,3.543 0,1.957 0,0 Z" /></g></g></g></g></svg>